<svg id="Layer_1" data-name="Layer 1" xmlns="http://www.w3.org/2000/svg" width="253.99" height="58.31" viewBox="0 0 253.99 58.31"><defs><style>.cls-1{fill:#161741;}</style></defs><title>elektrolux-logo</title><path class="cls-1" d="M0,58.31H58.31V0H0V58.31ZM37.37,4.45a26,26,0,0,1,0,49.4V4.45ZM29.15,3.13a29.22,29.22,0,0,1,5.5.58c0,13.21-12.78,24.08-26,24.08H3.17C4.07,14.24,15.28,3.13,29.15,3.13ZM8.68,30.54c13.18,0,26,10.86,26,24.06a29.41,29.41,0,0,1-5.5.59c-13.87,0-25.46-11.16-26-24.65H8.68Z"/><path class="cls-1" d="M77.83,34.28V30.61H90V25.92H77.83V19.1H90.73V14.42H72.86V34.07c0,5,2.12,8.36,7.08,9.06a1.32,1.32,0,0,0,.29,0h0.09a14.18,14.18,0,0,0,1.57.09h9.19V38.6H81.93C80.35,38.6,77.83,37.82,77.83,34.28Z"/><polygon class="cls-1" points="94.61 28.05 94.61 43.28 99.58 43.28 99.58 27.95 99.58 14.42 94.61 14.42 94.61 28.05"/><path class="cls-1" d="M113.82,21.75c-6.28,0-11,4.33-11,11.06V33c0,6.57,4.53,10.81,11.11,10.81A11.34,11.34,0,0,0,122.77,40l-3-2.91a7.23,7.23,0,0,1-5.66,2.41c-3.7,0-6.16-2.16-6.32-5.49h16.3c0.08-.83.08-1.75,0.08-1.75C124.18,26.45,120.06,21.75,113.82,21.75Zm-5.91,8.82C108.13,28,110.71,26,113.82,26c2.91,0,5.28,2.08,5.28,4.58H107.92Z"/><path class="cls-1" d="M138.14,26.2a7,7,0,0,1,5.32,2.29l3.08-3.2a11.11,11.11,0,1,0,0,15l-3.08-3.2a7,7,0,0,1-5.32,2.29,6.35,6.35,0,0,1-6.45-6.57A6.35,6.35,0,0,1,138.14,26.2Z"/><path class="cls-1" d="M154.61,34.29h0V26.92h4.52V22.41h-4.51v-8h-5V34.58h0c0.14,4.69,2.27,7.88,7.07,8.56a1.32,1.32,0,0,0,.29,0h0.09a14.18,14.18,0,0,0,1.57.09h0.53l0-4.67h-0.5C157.13,38.61,154.61,37.83,154.61,34.29Z"/><path class="cls-1" d="M168.23,25.51v-3.1H163.3V43.28h4.93v-11a5.23,5.23,0,0,1,5.63-5.59,9.92,9.92,0,0,1,2.07.21v-4.8a10.69,10.69,0,0,0-1.49-.12C171.46,22,169.22,23.36,168.23,25.51Z"/><path class="cls-1" d="M188.08,21.79a11.06,11.06,0,1,0,11.39,11.06A11.1,11.1,0,0,0,188.08,21.79Zm0,17.6a6.54,6.54,0,1,1,6.46-6.54A6.38,6.38,0,0,1,188.08,39.39Z"/><polygon class="cls-1" points="202.52 27.56 202.52 43.28 207.49 43.28 207.49 27.76 207.49 14.42 202.52 14.42 202.52 27.56"/><path class="cls-1" d="M225.41,34.54c0,3.31-1.95,4.72-4.56,4.72s-4.55-1.41-4.55-4.68V22.41h-5V35c0,6,4.35,8.82,9.52,8.82s9.6-2.9,9.6-8.94V22.41h-5V34.54Z"/><polygon class="cls-1" points="249.22 36.6 246.09 32.22 249.97 26.94 253.29 22.41 247.87 22.41 243.35 28.66 238.8 22.41 233.41 22.41 236.5 26.63 240.62 32.26 236.3 38.27 232.71 43.28 238.05 43.28 243.35 35.91 248.65 43.28 253.99 43.28 249.22 36.6"/></svg>