<?xml version="1.0" encoding="utf-8"?>
<!-- Generator: Adobe Illustrator 18.0.0, SVG Export Plug-In . SVG Version: 6.00 Build 0)  -->
<!DOCTYPE svg PUBLIC "-//W3C//DTD SVG 1.1//EN" "http://www.w3.org/Graphics/SVG/1.1/DTD/svg11.dtd">
<svg version="1.1" id="Layer_1" xmlns="http://www.w3.org/2000/svg" xmlns:xlink="http://www.w3.org/1999/xlink" x="0px" y="0px"
	 viewBox="0 0 310 78" enable-background="new 0 0 310 78" xml:space="preserve">
<image overflow="visible" width="293" height="78" xlink:href="F2D79327.jpg"  transform="matrix(1 0 0 1 -687 -125.75)">
</image>
<g>
	<defs>
		<polygon id="SVGID_1_" points="-565.7,-237.6 -558.6,-202 -558.6,-273.2 		"/>
	</defs>
	<clipPath id="SVGID_2_">
		<use xlink:href="#SVGID_1_"  overflow="visible"/>
	</clipPath>
	
		<linearGradient id="SVGID_3_" gradientUnits="userSpaceOnUse" x1="-835.6895" y1="331.8541" x2="-834.6895" y2="331.8541" gradientTransform="matrix(0 71.191 -71.191 0 23062.9219 59220.3711)">
		<stop  offset="0" style="stop-color:#FFFFFF"/>
		<stop  offset="0.65" style="stop-color:#CE181E"/>
		<stop  offset="1" style="stop-color:#8B0304"/>
	</linearGradient>
	<rect x="-565.7" y="-273.2" clip-path="url(#SVGID_2_)" fill="url(#SVGID_3_)" width="7.1" height="71.2"/>
</g>
<g>
	<defs>
		<polygon id="SVGID_4_" points="-565.7,-237.6 -558.6,-202 -558.6,-273.2 		"/>
	</defs>
	<clipPath id="SVGID_5_">
		<use xlink:href="#SVGID_4_"  overflow="visible"/>
	</clipPath>
	
		<linearGradient id="SVGID_6_" gradientUnits="userSpaceOnUse" x1="-835.6895" y1="331.8541" x2="-834.6895" y2="331.8541" gradientTransform="matrix(0 71.191 -71.191 0 23062.9219 59220.3711)">
		<stop  offset="0" style="stop-color:#FFFFFF"/>
		<stop  offset="0.65" style="stop-color:#CE181E"/>
		<stop  offset="1" style="stop-color:#8B0304"/>
	</linearGradient>
	<rect x="-565.7" y="-273.2" clip-path="url(#SVGID_5_)" fill="url(#SVGID_6_)" width="7.1" height="71.2"/>
</g>
<g>
	<defs>
		<polygon id="SVGID_7_" points="-565.7,-237.6 -558.6,-202 -558.6,-273.2 		"/>
	</defs>
	<clipPath id="SVGID_8_">
		<use xlink:href="#SVGID_7_"  overflow="visible"/>
	</clipPath>
	
		<linearGradient id="SVGID_9_" gradientUnits="userSpaceOnUse" x1="-835.6895" y1="331.8541" x2="-834.6895" y2="331.8541" gradientTransform="matrix(0 71.191 -71.191 0 23062.9219 59220.3711)">
		<stop  offset="0" style="stop-color:#FFFFFF"/>
		<stop  offset="0.65" style="stop-color:#CE181E"/>
		<stop  offset="1" style="stop-color:#8B0304"/>
	</linearGradient>
	<rect x="-565.7" y="-273.2" clip-path="url(#SVGID_8_)" fill="url(#SVGID_9_)" width="7.1" height="71.2"/>
</g>
<rect x="-558.6" y="-273.2" fill-rule="evenodd" clip-rule="evenodd" fill="#CE181E" width="3.6" height="71.2"/>
<g>
	<defs>
		<polygon id="SVGID_10_" points="-547.8,-202 -540.7,-237.6 -547.8,-273.2 		"/>
	</defs>
	<clipPath id="SVGID_11_">
		<use xlink:href="#SVGID_10_"  overflow="visible"/>
	</clipPath>
	
		<linearGradient id="SVGID_12_" gradientUnits="userSpaceOnUse" x1="-840.3105" y1="334.8659" x2="-839.3105" y2="334.8659" gradientTransform="matrix(0 -71.191 71.191 0 -24383.6895 -60024.5703)">
		<stop  offset="0" style="stop-color:#FFFFFF"/>
		<stop  offset="0.65" style="stop-color:#939598"/>
		<stop  offset="1" style="stop-color:#939598"/>
	</linearGradient>
	<rect x="-547.8" y="-273.2" clip-path="url(#SVGID_11_)" fill="url(#SVGID_12_)" width="7.1" height="71.2"/>
</g>
<rect x="-551.4" y="-273.2" fill-rule="evenodd" clip-rule="evenodd" fill="#BCBEC0" width="3.6" height="71.2"/>
<g>
	<path fill-rule="evenodd" clip-rule="evenodd" fill="#939598" d="M-670.9-377.4l-8.2-15.2l7.9-13.3h-1.9l-7.6,13.4h-0.1v-13.4h-1.7
		v28.5h1.7v-15h0.1l7.8,15H-670.9z M-663.2-376.9c3.2-0.2,4.7-1,5.8-5.1l6.4-23.9h-1.9l-5.4,22.1c-0.1-1.4-1.4-5.7-1.8-7l-3.9-15.1
		h-1.8l6.1,21.5l0.6,2c-0.2,2.7-2.4,3.5-4.4,3.5L-663.2-376.9z M-632.2-377.4l-5.9-15l5.3-13.5h-1.6l-4.6,11.8h-0.1l-4.1-11.8h-2
		l5.2,13.8l-5.9,14.7h1.8l4.9-13h0.1l4.8,13H-632.2z M-611.4-377.4v-28.5h-1.8v12.9h-9.4v-12.9h-1.8v28.5h1.8v-14h9.4v14H-611.4z
		 M-588.8-377.4v-28.5h-2.2l-9.4,26.1l0.2-1.1v-25h-1.8v28.5h2.2l9.4-25.6l-0.2,1.5v24.1H-588.8z"/>
	<path fill-rule="evenodd" clip-rule="evenodd" fill="#CE181E" d="M-407.3-405.9h7.1v2.1h-5c-2.3,0-4.3,1.9-4.3,4.3v22.1h-4.3v-22.1
		C-413.7-403-410.8-405.9-407.3-405.9 M-426.5-377.4h-2.1v-2.1c3.1,0,5.7-2.6,5.7-5.7v-18.5h-1.4c-3.1,0-5.7,2.6-5.7,5.7v20.6h-4.3
		V-398c0-4.3,3.5-7.8,7.8-7.8h7.8v20.6C-418.7-380.9-422.2-377.4-426.5-377.4 M-439.3-405.9h-5c-5.9,0-10.7,4.8-10.7,10.7v17.8h4.3
		v-17.8c0-4.2,3.1-7.7,7.1-8.4v26.2h4.3V-405.9z M-460-405.9h-5c-5.9,0-10.7,4.8-10.7,10.7v17.8h4.3v-17.8c0-4.2,3.1-7.7,7.1-8.4
		v16.1c-1.6-1.2-3.6-2-5.7-2v2.3c3.2,0.7,5.7,3.5,5.7,7v2.8h4.3V-405.9z M-496.3-405.9h4.3v26.2c4-0.7,7.1-4.2,7.1-8.4v-17.8h4.3
		v28.5h-4.3v-2.7c-1.9,1.7-4.4,2.7-7.1,2.7h-4.3V-405.9z M-502.7-405.9h-5c-5.9,0-10.7,4.8-10.7,10.7v17.8h4.3v-17.8
		c0-4.2,3.1-7.7,7.1-8.4v21.2c0,1.1,0.3,2,0.9,2.8h-6.6v2.1h12.8v-2.1h-0.7c-1.6,0-2.1-1.3-2.1-2.8V-405.9z"/>
	<g>
		<defs>
			<polygon id="SVGID_13_" points="-565.7,-391.6 -558.6,-356 -558.6,-427.2 			"/>
		</defs>
		<clipPath id="SVGID_14_">
			<use xlink:href="#SVGID_13_"  overflow="visible"/>
		</clipPath>
		
			<linearGradient id="SVGID_15_" gradientUnits="userSpaceOnUse" x1="-837.8527" y1="331.8541" x2="-836.8527" y2="331.8541" gradientTransform="matrix(0 71.191 -71.191 0 23062.9219 59220.3711)">
			<stop  offset="0" style="stop-color:#FFFFFF"/>
			<stop  offset="0.65" style="stop-color:#CE181E"/>
			<stop  offset="1" style="stop-color:#8B0304"/>
		</linearGradient>
		<rect x="-565.7" y="-427.2" clip-path="url(#SVGID_14_)" fill="url(#SVGID_15_)" width="7.1" height="71.2"/>
	</g>
	<g>
		<defs>
			<polygon id="SVGID_16_" points="-565.7,-391.6 -558.6,-356 -558.6,-427.2 			"/>
		</defs>
		<clipPath id="SVGID_17_">
			<use xlink:href="#SVGID_16_"  overflow="visible"/>
		</clipPath>
		
			<linearGradient id="SVGID_18_" gradientUnits="userSpaceOnUse" x1="-837.8527" y1="331.8541" x2="-836.8527" y2="331.8541" gradientTransform="matrix(0 71.191 -71.191 0 23062.9219 59220.3711)">
			<stop  offset="0" style="stop-color:#FFFFFF"/>
			<stop  offset="0.65" style="stop-color:#CE181E"/>
			<stop  offset="1" style="stop-color:#8B0304"/>
		</linearGradient>
		<rect x="-565.7" y="-427.2" clip-path="url(#SVGID_17_)" fill="url(#SVGID_18_)" width="7.1" height="71.2"/>
	</g>
	<g>
		<defs>
			<polygon id="SVGID_19_" points="-565.7,-391.6 -558.6,-356 -558.6,-427.2 			"/>
		</defs>
		<clipPath id="SVGID_20_">
			<use xlink:href="#SVGID_19_"  overflow="visible"/>
		</clipPath>
		
			<linearGradient id="SVGID_21_" gradientUnits="userSpaceOnUse" x1="-837.8527" y1="331.8541" x2="-836.8527" y2="331.8541" gradientTransform="matrix(0 71.191 -71.191 0 23062.9219 59220.3711)">
			<stop  offset="0" style="stop-color:#FFFFFF"/>
			<stop  offset="0.65" style="stop-color:#CE181E"/>
			<stop  offset="1" style="stop-color:#8B0304"/>
		</linearGradient>
		<rect x="-565.7" y="-427.2" clip-path="url(#SVGID_20_)" fill="url(#SVGID_21_)" width="7.1" height="71.2"/>
	</g>
	<rect x="-558.6" y="-427.2" fill-rule="evenodd" clip-rule="evenodd" fill="#CE181E" width="3.6" height="71.2"/>
	<g>
		<defs>
			<polygon id="SVGID_22_" points="-547.8,-356 -540.7,-391.6 -547.8,-427.2 			"/>
		</defs>
		<clipPath id="SVGID_23_">
			<use xlink:href="#SVGID_22_"  overflow="visible"/>
		</clipPath>
		
			<linearGradient id="SVGID_24_" gradientUnits="userSpaceOnUse" x1="-838.1473" y1="334.8659" x2="-837.1473" y2="334.8659" gradientTransform="matrix(0 -71.191 71.191 0 -24383.6895 -60024.5703)">
			<stop  offset="0" style="stop-color:#FFFFFF"/>
			<stop  offset="0.65" style="stop-color:#939598"/>
			<stop  offset="1" style="stop-color:#939598"/>
		</linearGradient>
		<rect x="-547.8" y="-427.2" clip-path="url(#SVGID_23_)" fill="url(#SVGID_24_)" width="7.1" height="71.2"/>
	</g>
	<rect x="-551.4" y="-427.2" fill-rule="evenodd" clip-rule="evenodd" fill="#BCBEC0" width="3.6" height="71.2"/>
</g>
<g>
	<path fill-rule="evenodd" clip-rule="evenodd" fill="#CE181E" d="M-424.7-245.5c0-2.3,1.9-4.3,4.3-4.3h7.1v-2.1h-9.3
		c-3.5,0-6.4,2.9-6.4,6.4v15.7c0,3.5,2.9,6.4,6.4,6.4h9.3v-15.2h-8.1v2.1h3.8v10.9h-2.8c-2.3,0-4.3-1.9-4.3-4.3V-245.5z"/>
	<path fill-rule="evenodd" clip-rule="evenodd" fill="#CE181E" d="M-460.1-229.8v-22.1h-4.3v22.1c0,3.5,2.9,6.4,6.4,6.4h5.8v-2.1
		h-3.7C-458.2-225.5-460.1-227.5-460.1-229.8z"/>
	<path fill-rule="evenodd" clip-rule="evenodd" fill="#CE181E" d="M-448.6-244v20.6h4.3V-244c0-3.1,2.6-5.7,5.7-5.7h1.4v18.5
		c0,3.1-2.6,5.7-5.7,5.7v2.1h2.1c4.3,0,7.8-3.5,7.8-7.8v-20.6h-7.8C-445.1-251.9-448.6-248.4-448.6-244z"/>
	<path fill-rule="evenodd" clip-rule="evenodd" fill="#CE181E" d="M-485-241.2v17.8h4.3v-17.8c0-4.2,3.1-7.7,7.1-8.4v16.1
		c-1.6-1.2-3.6-2-5.7-2v2.3c3.2,0.7,5.7,3.5,5.7,7v2.8h4.3v-28.5h-5C-480.2-251.9-485-247.1-485-241.2z"/>
	<path fill-rule="evenodd" clip-rule="evenodd" fill="#CE181E" d="M-510.5-251.9h-0.7h-4.3v28.5h4.3h0l0-26.2c4,0.7,7.1,4.2,7.1,8.4
		v7.1c0,3.7-2.4,6.9-5.7,8v2.6c5.5-0.4,10-5,10-10.6v-7.1C-499.8-247.1-504.6-251.9-510.5-251.9z"/>
	<rect x="-495.3" y="-251.9" fill-rule="evenodd" clip-rule="evenodd" fill="#CE181E" width="4.3" height="28.5"/>
</g>
<text transform="matrix(1 0 0 1 -971.9988 -300.8636)" font-family="'BebasNeueBook'" font-size="42.9149" letter-spacing="2">КУХНИ</text>
<g>
	
		<text transform="matrix(1 0 0 1 -708.1507 -223.4008)" fill="#939598" font-family="'OpenSans-CondensedLight'" font-size="39.92" letter-spacing="2">KUCHEN</text>
</g>
<g>
	<text transform="matrix(1 0 0 1 -696.9097 -377.3759)" font-family="'OpenSans-CondensedLight'" font-size="39.92">KUCHEN</text>
</g>
<path fill-rule="evenodd" clip-rule="evenodd" fill="#CE181E" d="M-407.4,44.7h9.3v2.1h-7.1c-2.3,0-4.3,1.9-4.3,4.3v11.5h-4.3V51.1
	C-413.8,47.6-410.9,44.7-407.4,44.7"/>
<path fill-rule="evenodd" clip-rule="evenodd" fill="#CE181E" d="M-407.4,73.2c-3.5,0-6.4-2.9-6.4-6.4V55.2h4.3v11.6
	c0,2.3,1.9,4.3,4.3,4.3h5v2.1H-407.4"/>
<path fill-rule="evenodd" clip-rule="evenodd" fill="#CE181E" d="M-442.8,73.2c-3.5,0-6.4-2.9-6.4-6.4V44.7h4.3v22.1
	c0,2.3,1.9,4.3,4.3,4.3h3.7v2.1H-442.8"/>
<path fill-rule="evenodd" clip-rule="evenodd" fill="#CE181E" d="M-425.6,73.2h-2.1v-2.1c3.1,0,5.7-2.6,5.7-5.7V46.9h-1.4
	c-3.1,0-5.7,2.6-5.7,5.7v20.6h-4.3V52.6c0-4.3,3.5-7.8,7.8-7.8h7.8v20.6C-417.8,69.7-421.3,73.2-425.6,73.2"/>
<path fill-rule="evenodd" clip-rule="evenodd" fill="#CE181E" d="M-454.2,44.7h-5c-5.9,0-10.7,4.8-10.7,10.7v17.8h4.3V55.4
	c0-4.2,3.1-7.7,7.1-8.4v16.1c-1.6-1.2-3.6-2-5.7-2v2.3c3.2,0.7,5.7,3.5,5.7,7v2.8h4.3V44.7z"/>
<g>
	<defs>
		<polygon id="SVGID_25_" points="-550.5,59 -543.4,94.6 -543.4,23.4 		"/>
	</defs>
	<clipPath id="SVGID_26_">
		<use xlink:href="#SVGID_25_"  overflow="visible"/>
	</clipPath>
	
		<linearGradient id="SVGID_27_" gradientUnits="userSpaceOnUse" x1="-831.5231" y1="331.6415" x2="-830.5231" y2="331.6415" gradientTransform="matrix(0 71.191 -71.191 0 23062.9219 59220.3711)">
		<stop  offset="0" style="stop-color:#FFFFFF"/>
		<stop  offset="0.65" style="stop-color:#CE181E"/>
		<stop  offset="1" style="stop-color:#8B0304"/>
	</linearGradient>
	<rect x="-550.5" y="23.4" clip-path="url(#SVGID_26_)" fill="url(#SVGID_27_)" width="7.1" height="71.2"/>
</g>
<g>
	<defs>
		<polygon id="SVGID_28_" points="-550.5,59 -543.4,94.6 -543.4,23.4 		"/>
	</defs>
	<clipPath id="SVGID_29_">
		<use xlink:href="#SVGID_28_"  overflow="visible"/>
	</clipPath>
	
		<linearGradient id="SVGID_30_" gradientUnits="userSpaceOnUse" x1="-831.5231" y1="331.6415" x2="-830.5231" y2="331.6415" gradientTransform="matrix(0 71.191 -71.191 0 23062.9219 59220.3711)">
		<stop  offset="0" style="stop-color:#FFFFFF"/>
		<stop  offset="0.65" style="stop-color:#CE181E"/>
		<stop  offset="1" style="stop-color:#8B0304"/>
	</linearGradient>
	<rect x="-550.5" y="23.4" clip-path="url(#SVGID_29_)" fill="url(#SVGID_30_)" width="7.1" height="71.2"/>
</g>
<g>
	<defs>
		<polygon id="SVGID_31_" points="-550.5,59 -543.4,94.6 -543.4,23.4 		"/>
	</defs>
	<clipPath id="SVGID_32_">
		<use xlink:href="#SVGID_31_"  overflow="visible"/>
	</clipPath>
	
		<linearGradient id="SVGID_33_" gradientUnits="userSpaceOnUse" x1="-831.5231" y1="331.6415" x2="-830.5231" y2="331.6415" gradientTransform="matrix(0 71.191 -71.191 0 23062.9219 59220.3711)">
		<stop  offset="0" style="stop-color:#FFFFFF"/>
		<stop  offset="0.65" style="stop-color:#CE181E"/>
		<stop  offset="1" style="stop-color:#8B0304"/>
	</linearGradient>
	<rect x="-550.5" y="23.4" clip-path="url(#SVGID_32_)" fill="url(#SVGID_33_)" width="7.1" height="71.2"/>
</g>
<rect x="-543.4" y="23.4" fill-rule="evenodd" clip-rule="evenodd" fill="#CE181E" width="3.6" height="71.2"/>
<g>
	<defs>
		<polygon id="SVGID_34_" points="-532.7,94.6 -525.6,59 -532.7,23.4 		"/>
	</defs>
	<clipPath id="SVGID_35_">
		<use xlink:href="#SVGID_34_"  overflow="visible"/>
	</clipPath>
	
		<linearGradient id="SVGID_36_" gradientUnits="userSpaceOnUse" x1="-844.4769" y1="335.0785" x2="-843.4769" y2="335.0785" gradientTransform="matrix(0 -71.191 71.191 0 -24383.6895 -60024.5703)">
		<stop  offset="0" style="stop-color:#FFFFFF"/>
		<stop  offset="0.65" style="stop-color:#939598"/>
		<stop  offset="1" style="stop-color:#939598"/>
	</linearGradient>
	<rect x="-532.7" y="23.4" clip-path="url(#SVGID_35_)" fill="url(#SVGID_36_)" width="7.1" height="71.2"/>
</g>
<rect x="-536.2" y="23.4" fill-rule="evenodd" clip-rule="evenodd" fill="#BCBEC0" width="3.6" height="71.2"/>
<path fill-rule="evenodd" clip-rule="evenodd" fill="#CE181E" d="M-495.4,44.7h-0.7h-4.3v28.5h4.3h0l0-26.2c4,0.7,7.1,4.2,7.1,8.4
	v7.1c0,3.7-2.4,6.9-5.7,8v2.6c5.5-0.4,10-5,10-10.6v-7.1C-484.7,49.5-489.5,44.7-495.4,44.7z"/>
<rect x="-480.1" y="44.7" fill-rule="evenodd" clip-rule="evenodd" fill="#CE181E" width="4.3" height="28.5"/>
<rect x="-402.4" y="58.1" fill-rule="evenodd" clip-rule="evenodd" fill="#CE181E" width="4.3" height="15.2"/>
<rect x="-406.3" y="58.1" fill-rule="evenodd" clip-rule="evenodd" fill="#CE181E" width="7.1" height="2.1"/>
<g>
	
		<text transform="matrix(1 0 0 1 -693.016 73.209)" fill="#939598" font-family="'OpenSans-CondensedLight'" font-size="39.92" letter-spacing="2">KUCHEN</text>
</g>
<g>
	<text transform="matrix(1 0 0 1 -976.4347 -223.4008)" fill="#949597" font-family="'BebasNeueBook'" font-size="42.9149">kuchen</text>
</g>
<g>
	
		<text transform="matrix(1 0 0 1 -995.6566 -149.4008)" fill="#949597" font-family="'OpenSans-CondensedLight'" font-size="42.9149">KUCHEN</text>
</g>
<g>
	<text transform="matrix(1 0 0 1 -986.2615 -94.4008)" fill="#949597" font-family="'MyriadPro-Cond'" font-size="42.9149">KUCHEN</text>
</g>
<g>
	<path fill-rule="evenodd" clip-rule="evenodd" fill="#939598" d="M39.2-73.4L31-88.6l7.9-13.3H37l-7.6,13.4h-0.1v-13.4h-1.7v28.5
		h1.7v-15h0.1l7.8,15H39.2z M46.9-72.9c3.2-0.2,4.7-1,5.8-5.1l6.4-23.9h-1.9l-5.4,22.1c-0.1-1.4-1.4-5.7-1.8-7l-3.9-15.1h-1.8
		l6.1,21.5l0.6,2c-0.2,2.7-2.4,3.5-4.4,3.5L46.9-72.9z M78-73.4l-5.9-15l5.3-13.5h-1.6l-4.6,11.8h-0.1l-4.1-11.8h-2l5.2,13.8
		l-5.9,14.7h1.8l4.9-13h0.1l4.8,13H78z M98.8-73.4v-28.5H97V-89h-9.4v-12.9h-1.8v28.5h1.8v-14H97v14H98.8z M121.3-73.4v-28.5h-2.2
		l-9.4,26.1l0.2-1.1v-25h-1.8v28.5h2.2l9.4-25.6l-0.2,1.5v24.1H121.3z"/>
	<path fill-rule="evenodd" clip-rule="evenodd" fill="#CE181E" d="M302.9-101.9h7.1v2.1h-5c-2.3,0-4.3,1.9-4.3,4.3v22.1h-4.3v-22.1
		C296.5-99.1,299.4-101.9,302.9-101.9 M283.7-73.5h-2.1v-2.1c3.1,0,5.7-2.6,5.7-5.7v-18.5h-1.4c-3.1,0-5.7,2.6-5.7,5.7v20.6h-4.3
		v-20.6c0-4.3,3.5-7.8,7.8-7.8h7.8v20.6C291.5-77,288-73.5,283.7-73.5 M270.8-101.9h-5c-5.9,0-10.7,4.8-10.7,10.7v17.8h4.3v-17.8
		c0-4.2,3.1-7.7,7.1-8.4v26.2h4.3V-101.9z M250.2-101.9h-5c-5.9,0-10.7,4.8-10.7,10.7v17.8h4.3v-17.8c0-4.2,3.1-7.7,7.1-8.4v16.1
		c-1.6-1.2-3.6-2-5.7-2v2.3c3.2,0.7,5.7,3.5,5.7,7v2.8h4.3V-101.9z M213.9-101.9h4.3v26.2c4-0.7,7.1-4.2,7.1-8.4v-17.8h4.3v28.5
		h-4.3v-2.7c-1.9,1.7-4.4,2.7-7.1,2.7h-4.3V-101.9z M207.5-101.9h-5c-5.9,0-10.7,4.8-10.7,10.7v17.8h4.3v-17.8
		c0-4.2,3.1-7.7,7.1-8.4v21.2c0,1.1,0.3,2,0.9,2.8h-6.6v2.1h12.8v-2.1h-0.7c-1.6,0-2.1-1.3-2.1-2.8V-101.9z"/>
	<g>
		<defs>
			<polygon id="SVGID_37_" points="144.5,-87.7 151.6,-52.1 151.6,-123.3 			"/>
		</defs>
		<clipPath id="SVGID_38_">
			<use xlink:href="#SVGID_37_"  overflow="visible"/>
		</clipPath>
		
			<linearGradient id="SVGID_39_" gradientUnits="userSpaceOnUse" x1="-833.5833" y1="321.8787" x2="-832.5833" y2="321.8787" gradientTransform="matrix(0 71.191 -71.191 0 23062.9219 59220.3711)">
			<stop  offset="0" style="stop-color:#FFFFFF"/>
			<stop  offset="0.65" style="stop-color:#CE181E"/>
			<stop  offset="1" style="stop-color:#8B0304"/>
		</linearGradient>
		<rect x="144.5" y="-123.3" clip-path="url(#SVGID_38_)" fill="url(#SVGID_39_)" width="7.1" height="71.2"/>
	</g>
	<g>
		<defs>
			<polygon id="SVGID_40_" points="144.5,-87.7 151.6,-52.1 151.6,-123.3 			"/>
		</defs>
		<clipPath id="SVGID_41_">
			<use xlink:href="#SVGID_40_"  overflow="visible"/>
		</clipPath>
		
			<linearGradient id="SVGID_42_" gradientUnits="userSpaceOnUse" x1="-833.5833" y1="321.8787" x2="-832.5833" y2="321.8787" gradientTransform="matrix(0 71.191 -71.191 0 23062.9219 59220.3711)">
			<stop  offset="0" style="stop-color:#FFFFFF"/>
			<stop  offset="0.65" style="stop-color:#CE181E"/>
			<stop  offset="1" style="stop-color:#8B0304"/>
		</linearGradient>
		<rect x="144.5" y="-123.3" clip-path="url(#SVGID_41_)" fill="url(#SVGID_42_)" width="7.1" height="71.2"/>
	</g>
	<g>
		<defs>
			<polygon id="SVGID_43_" points="144.5,-87.7 151.6,-52.1 151.6,-123.3 			"/>
		</defs>
		<clipPath id="SVGID_44_">
			<use xlink:href="#SVGID_43_"  overflow="visible"/>
		</clipPath>
		
			<linearGradient id="SVGID_45_" gradientUnits="userSpaceOnUse" x1="-833.5833" y1="321.8787" x2="-832.5833" y2="321.8787" gradientTransform="matrix(0 71.191 -71.191 0 23062.9219 59220.3711)">
			<stop  offset="0" style="stop-color:#FFFFFF"/>
			<stop  offset="0.65" style="stop-color:#CE181E"/>
			<stop  offset="1" style="stop-color:#8B0304"/>
		</linearGradient>
		<rect x="144.5" y="-123.3" clip-path="url(#SVGID_44_)" fill="url(#SVGID_45_)" width="7.1" height="71.2"/>
	</g>
	<rect x="151.6" y="-123.3" fill-rule="evenodd" clip-rule="evenodd" fill="#CE181E" width="3.6" height="71.2"/>
	<g>
		<defs>
			<polygon id="SVGID_46_" points="162.3,-52.1 169.5,-87.7 162.3,-123.3 			"/>
		</defs>
		<clipPath id="SVGID_47_">
			<use xlink:href="#SVGID_46_"  overflow="visible"/>
		</clipPath>
		
			<linearGradient id="SVGID_48_" gradientUnits="userSpaceOnUse" x1="-842.4167" y1="344.8413" x2="-841.4167" y2="344.8413" gradientTransform="matrix(0 -71.191 71.191 0 -24383.6895 -60024.5703)">
			<stop  offset="0" style="stop-color:#FFFFFF"/>
			<stop  offset="0.65" style="stop-color:#939598"/>
			<stop  offset="1" style="stop-color:#939598"/>
		</linearGradient>
		<rect x="162.3" y="-123.3" clip-path="url(#SVGID_47_)" fill="url(#SVGID_48_)" width="7.1" height="71.2"/>
	</g>
	<rect x="158.8" y="-123.3" fill-rule="evenodd" clip-rule="evenodd" fill="#BCBEC0" width="3.6" height="71.2"/>
</g>
<g>
	<path fill-rule="evenodd" clip-rule="evenodd" fill="#CE181E" d="M270.6,23.8h7.1V26h-5c-2.3,0-4.3,1.9-4.3,4.3v22.1h-4.3V30.2
		C264.2,26.7,267.1,23.8,270.6,23.8 M251.4,52.3h-2.1v-2.1c3.1,0,5.7-2.6,5.7-5.7V26h-1.4c-3.1,0-5.7,2.6-5.7,5.7v20.6h-4.3V31.6
		c0-4.3,3.5-7.8,7.8-7.8h7.8v20.6C259.2,48.8,255.7,52.3,251.4,52.3 M238.6,23.8h-5c-5.9,0-10.7,4.8-10.7,10.7v17.8h4.3V34.5
		c0-4.2,3.1-7.7,7.1-8.4v26.2h4.3V23.8z M218,23.8h-5c-5.9,0-10.7,4.8-10.7,10.7v17.8h4.3V34.5c0-4.2,3.1-7.7,7.1-8.4v16.1
		c-1.6-1.2-3.6-2-5.7-2v2.3c3.2,0.7,5.7,3.5,5.7,7v2.8h4.3V23.8z M181.6,23.8h4.3V50c4-0.7,7.1-4.2,7.1-8.4V23.8h4.3v28.5H193v-2.7
		c-1.9,1.7-4.4,2.7-7.1,2.7h-4.3V23.8z M175.2,23.8h-5c-5.9,0-10.7,4.8-10.7,10.7v17.8h4.3V34.5c0-4.2,3.1-7.7,7.1-8.4v21.2
		c0,1.1,0.3,2,0.9,2.8h-6.6v2.1h12.8v-2.1h-0.7c-1.6,0-2.1-1.3-2.1-2.8V23.8z"/>
	<g>
		<defs>
			<polygon id="SVGID_49_" points="112.2,38.1 119.4,73.7 119.4,2.5 			"/>
		</defs>
		<clipPath id="SVGID_50_">
			<use xlink:href="#SVGID_49_"  overflow="visible"/>
		</clipPath>
		
			<linearGradient id="SVGID_51_" gradientUnits="userSpaceOnUse" x1="-831.8169" y1="322.3317" x2="-830.8169" y2="322.3317" gradientTransform="matrix(0 71.191 -71.191 0 23062.9219 59220.3711)">
			<stop  offset="0" style="stop-color:#FFFFFF"/>
			<stop  offset="0.65" style="stop-color:#CE181E"/>
			<stop  offset="1" style="stop-color:#8B0304"/>
		</linearGradient>
		<rect x="112.2" y="2.5" clip-path="url(#SVGID_50_)" fill="url(#SVGID_51_)" width="7.1" height="71.2"/>
	</g>
	<g>
		<defs>
			<polygon id="SVGID_52_" points="112.2,38.1 119.4,73.7 119.4,2.5 			"/>
		</defs>
		<clipPath id="SVGID_53_">
			<use xlink:href="#SVGID_52_"  overflow="visible"/>
		</clipPath>
		
			<linearGradient id="SVGID_54_" gradientUnits="userSpaceOnUse" x1="-831.8169" y1="322.3317" x2="-830.8169" y2="322.3317" gradientTransform="matrix(0 71.191 -71.191 0 23062.9219 59220.3711)">
			<stop  offset="0" style="stop-color:#FFFFFF"/>
			<stop  offset="0.65" style="stop-color:#CE181E"/>
			<stop  offset="1" style="stop-color:#8B0304"/>
		</linearGradient>
		<rect x="112.2" y="2.5" clip-path="url(#SVGID_53_)" fill="url(#SVGID_54_)" width="7.1" height="71.2"/>
	</g>
	<g>
		<defs>
			<polygon id="SVGID_55_" points="112.2,38.1 119.4,73.7 119.4,2.5 			"/>
		</defs>
		<clipPath id="SVGID_56_">
			<use xlink:href="#SVGID_55_"  overflow="visible"/>
		</clipPath>
		
			<linearGradient id="SVGID_57_" gradientUnits="userSpaceOnUse" x1="-831.8169" y1="322.3317" x2="-830.8169" y2="322.3317" gradientTransform="matrix(0 71.191 -71.191 0 23062.9219 59220.3711)">
			<stop  offset="0" style="stop-color:#FFFFFF"/>
			<stop  offset="0.65" style="stop-color:#CE181E"/>
			<stop  offset="1" style="stop-color:#8B0304"/>
		</linearGradient>
		<rect x="112.2" y="2.5" clip-path="url(#SVGID_56_)" fill="url(#SVGID_57_)" width="7.1" height="71.2"/>
	</g>
	<rect x="119.4" y="2.5" fill-rule="evenodd" clip-rule="evenodd" fill="#CE181E" width="3.6" height="71.2"/>
	<g>
		<defs>
			<polygon id="SVGID_58_" points="130.1,73.7 137.2,38.1 130.1,2.5 			"/>
		</defs>
		<clipPath id="SVGID_59_">
			<use xlink:href="#SVGID_58_"  overflow="visible"/>
		</clipPath>
		
			<linearGradient id="SVGID_60_" gradientUnits="userSpaceOnUse" x1="-844.1831" y1="344.3883" x2="-843.1831" y2="344.3883" gradientTransform="matrix(0 -71.191 71.191 0 -24383.6895 -60024.5703)">
			<stop  offset="0" style="stop-color:#FFFFFF"/>
			<stop  offset="0.65" style="stop-color:#939598"/>
			<stop  offset="1" style="stop-color:#939598"/>
		</linearGradient>
		<rect x="130.1" y="2.5" clip-path="url(#SVGID_59_)" fill="url(#SVGID_60_)" width="7.1" height="71.2"/>
	</g>
	<rect x="126.5" y="2.5" fill-rule="evenodd" clip-rule="evenodd" fill="#BCBEC0" width="3.6" height="71.2"/>
	<g>
		<path fill="#939598" d="M1.9,37.6L10,23.8H12L3.9,37.6l8.8,14.7h-2.2L1.9,37.7v14.6H0V23.8h1.9V37.6z"/>
		<path fill="#939598" d="M22,44l-6.1-20.2h2l4.3,14.6c0.1,0.5,0.4,1.4,0.7,2.8H23c0.2-1.1,0.3-2,0.5-2.8l3.7-14.6h2l-6.4,23.8
			c-0.5,1.8-1.1,3.1-1.8,3.9c-0.7,0.8-1.6,1.2-2.8,1.2c-0.6,0-1.2-0.1-1.7-0.4v-1.8c0.6,0.2,1.1,0.4,1.7,0.4c0.6,0,1.2-0.3,1.6-0.9
			c0.4-0.6,0.9-1.5,1.2-2.9L22,44z"/>
		<path fill="#939598" d="M46.8,52.3h-2l-4.3-13.1l-5,13.1h-1.9l6-15.1l-5.1-13.4h2l4.2,11.9l4.1-11.9h1.9l-5,13.8L46.8,52.3z"/>
		<path fill="#939598" d="M67.3,52.3h-1.9v-14h-9.9v14h-1.9V23.8h1.9v12.7h9.9V23.8h1.9V52.3z"/>
		<path fill="#939598" d="M74.3,23.8h1.9v19.9c0,0.4,0,0.9,0,1.3s-0.1,1.8-0.2,4h0.2l10.7-25.3h2.5v28.5h-1.9V31.9
			c0-1.6,0.1-3.3,0.2-5.1h-0.2L76.7,52.3h-2.4V23.8z"/>
	</g>
</g>
<g>
	<g>
		<defs>
			<polygon id="SVGID_61_" points="160.5,304.7 167.6,340.3 167.6,269.1 			"/>
		</defs>
		<clipPath id="SVGID_62_">
			<use xlink:href="#SVGID_61_"  overflow="visible"/>
		</clipPath>
		
			<linearGradient id="SVGID_63_" gradientUnits="userSpaceOnUse" x1="-828.0717" y1="321.6542" x2="-827.0717" y2="321.6542" gradientTransform="matrix(0 71.191 -71.191 0 23062.9219 59220.3711)">
			<stop  offset="0" style="stop-color:#FFFFFF"/>
			<stop  offset="0.65" style="stop-color:#CE181E"/>
			<stop  offset="1" style="stop-color:#8B0304"/>
		</linearGradient>
		<rect x="160.5" y="269.1" clip-path="url(#SVGID_62_)" fill="url(#SVGID_63_)" width="7.1" height="71.2"/>
	</g>
	<g>
		<defs>
			<polygon id="SVGID_64_" points="160.5,304.7 167.6,340.3 167.6,269.1 			"/>
		</defs>
		<clipPath id="SVGID_65_">
			<use xlink:href="#SVGID_64_"  overflow="visible"/>
		</clipPath>
		
			<linearGradient id="SVGID_66_" gradientUnits="userSpaceOnUse" x1="-828.0717" y1="321.6542" x2="-827.0717" y2="321.6542" gradientTransform="matrix(0 71.191 -71.191 0 23062.9219 59220.3711)">
			<stop  offset="0" style="stop-color:#FFFFFF"/>
			<stop  offset="0.65" style="stop-color:#CE181E"/>
			<stop  offset="1" style="stop-color:#8B0304"/>
		</linearGradient>
		<rect x="160.5" y="269.1" clip-path="url(#SVGID_65_)" fill="url(#SVGID_66_)" width="7.1" height="71.2"/>
	</g>
	<g>
		<defs>
			<polygon id="SVGID_67_" points="160.5,304.7 167.6,340.3 167.6,269.1 			"/>
		</defs>
		<clipPath id="SVGID_68_">
			<use xlink:href="#SVGID_67_"  overflow="visible"/>
		</clipPath>
		
			<linearGradient id="SVGID_69_" gradientUnits="userSpaceOnUse" x1="-828.0717" y1="321.6542" x2="-827.0717" y2="321.6542" gradientTransform="matrix(0 71.191 -71.191 0 23062.9219 59220.3711)">
			<stop  offset="0" style="stop-color:#FFFFFF"/>
			<stop  offset="0.65" style="stop-color:#CE181E"/>
			<stop  offset="1" style="stop-color:#8B0304"/>
		</linearGradient>
		<rect x="160.5" y="269.1" clip-path="url(#SVGID_68_)" fill="url(#SVGID_69_)" width="7.1" height="71.2"/>
	</g>
	<rect x="167.6" y="269.1" fill-rule="evenodd" clip-rule="evenodd" fill="#CE181E" width="3.6" height="71.2"/>
	<g>
		<defs>
			<polygon id="SVGID_70_" points="178.3,340.3 185.4,304.7 178.3,269.1 			"/>
		</defs>
		<clipPath id="SVGID_71_">
			<use xlink:href="#SVGID_70_"  overflow="visible"/>
		</clipPath>
		
			<linearGradient id="SVGID_72_" gradientUnits="userSpaceOnUse" x1="-847.9283" y1="345.0658" x2="-846.9283" y2="345.0658" gradientTransform="matrix(0 -71.191 71.191 0 -24383.6895 -60024.5703)">
			<stop  offset="0" style="stop-color:#FFFFFF"/>
			<stop  offset="0.65" style="stop-color:#939598"/>
			<stop  offset="1" style="stop-color:#939598"/>
		</linearGradient>
		<rect x="178.3" y="269.1" clip-path="url(#SVGID_71_)" fill="url(#SVGID_72_)" width="7.1" height="71.2"/>
	</g>
	<rect x="174.8" y="269.1" fill-rule="evenodd" clip-rule="evenodd" fill="#BCBEC0" width="3.6" height="71.2"/>
	<g>
		<g>
			<path fill="#939598" d="M13,318.9h-2.1l-6.7-14.2l-2.2,2.9v11.3H0v-28.5h1.9v15.1c0.7-1.2,3.5-6.3,8.4-15.1h2.1L5.3,303L13,318.9
				z"/>
			<path fill="#939598" d="M18.5,318.9v-28.5h1.9v28.5H18.5z"/>
			<path fill="#939598" d="M33.8,318.9h-1.9v-26.7h-5.7v-1.8h13.3v1.8h-5.7V318.9z"/>
			<path fill="#939598" d="M53.3,291.8c-2.1,0-3.8,1.1-5.1,3.4s-1.9,5.4-1.9,9.4c0,2.6,0.3,4.9,0.9,6.8c0.6,1.9,1.4,3.4,2.5,4.5
				s2.4,1.6,3.8,1.6c1.5,0,2.8-0.3,3.8-0.8v1.8c-1,0.6-2.3,0.9-4,0.9c-1.8,0-3.4-0.6-4.7-1.8s-2.4-2.9-3.1-5.1
				c-0.7-2.2-1.1-4.8-1.1-7.9c0-4.5,0.8-8.1,2.4-10.7c1.6-2.6,3.8-3.9,6.6-3.9c1.7,0,3.3,0.4,4.6,1.2l-0.9,1.7
				C56,292.2,54.7,291.8,53.3,291.8z"/>
			<path fill="#939598" d="M78.2,318.9h-1.9v-14h-9.9v14h-1.9v-28.5h1.9v12.7h9.9v-12.7h1.9V318.9z"/>
			<path fill="#939598" d="M97.2,318.9H86.8v-28.5h10.3v1.8h-8.4v10.8h8v1.8h-8v12.2h8.4V318.9z"/>
			<path fill="#939598" d="M119.6,318.9h-2.4l-10.8-25.6h-0.2c0.2,1.8,0.2,3.5,0.2,5.1v20.4h-1.9v-28.5h2.5l10.7,25.3h0.1
				c-0.1-2.1-0.2-3.9-0.2-5.3v-19.9h1.9V318.9z"/>
			<path fill="#939598" d="M139.2,311.5c0,2.3-0.6,4.2-1.9,5.7c-1.3,1.4-2.9,2.2-5,2.2c-2.3,0-4.1-0.3-5.5-1v-2.1
				c0.7,0.4,1.5,0.7,2.5,0.9c1,0.2,2,0.3,3,0.3c1.5,0,2.7-0.6,3.6-1.7c0.9-1.1,1.4-2.5,1.4-4.2c0-1.6-0.3-2.8-1-3.7
				c-0.7-0.9-1.9-1.8-3.8-2.8c-1.5-0.7-2.6-1.5-3.3-2.2s-1.3-1.5-1.6-2.4c-0.4-0.9-0.5-2-0.5-3.3c0-1.4,0.3-2.7,0.9-3.7
				c0.6-1.1,1.4-1.9,2.4-2.5c1-0.6,2.2-0.9,3.4-0.9c1.1,0,2.1,0.1,3,0.4c0.9,0.2,1.6,0.5,2.1,0.8L138,293c-1.4-0.7-2.9-1.1-4.4-1.1
				c-1.4,0-2.5,0.5-3.4,1.4s-1.3,2.2-1.3,3.8c0,1.6,0.3,2.8,1,3.7c0.6,0.9,1.9,1.8,3.7,2.7c1.9,0.9,3.3,2,4.2,3.3
				C138.7,308.2,139.2,309.7,139.2,311.5z"/>
		</g>
	</g>
	<g>
		<path fill-rule="evenodd" clip-rule="evenodd" fill="#CE181E" d="M302.9,292.6h7.1v-2.1h-9.3c-3.5,0-6.4,2.9-6.4,6.4v15.7
			c0,3.5,2.9,6.4,6.4,6.4h9.3v-15.2h-8.1v2.1h3.8v10.9h-2.8c-2.3,0-4.3-1.9-4.3-4.3v-15.7C298.6,294.5,300.5,292.6,302.9,292.6z"/>
		<path fill-rule="evenodd" clip-rule="evenodd" fill="#CE181E" d="M263.2,312.5v-22.1h-4.3v22.1c0,3.5,2.9,6.4,6.4,6.4h5.8v-2.1
			h-3.7C265.1,316.8,263.2,314.9,263.2,312.5z"/>
		<path fill-rule="evenodd" clip-rule="evenodd" fill="#CE181E" d="M274.7,298.3v20.6h4.3v-20.6c0-3.1,2.6-5.7,5.7-5.7h1.4v18.5
			c0,3.1-2.6,5.7-5.7,5.7v2.1h2.1c4.3,0,7.8-3.5,7.8-7.8v-20.6h-7.8C278.2,290.4,274.7,294,274.7,298.3z"/>
		<path fill-rule="evenodd" clip-rule="evenodd" fill="#CE181E" d="M238.3,301.1v17.8h4.3v-17.8c0-4.2,3.1-7.7,7.1-8.4v16.1
			c-1.6-1.2-3.6-2-5.7-2v2.3c3.2,0.7,5.7,3.5,5.7,7v2.8h4.3v-28.5h-5C243.1,290.4,238.3,295.3,238.3,301.1z"/>
		<path fill-rule="evenodd" clip-rule="evenodd" fill="#CE181E" d="M212.8,290.4h-0.7h-4.3v28.5h4.3h0l0-26.2c4,0.7,7.1,4.2,7.1,8.4
			v7.1c0,3.7-2.4,6.9-5.7,8v2.6c5.5-0.4,10-5,10-10.6v-7.1C223.5,295.3,218.7,290.4,212.8,290.4z"/>
		<rect x="228" y="290.4" fill-rule="evenodd" clip-rule="evenodd" fill="#CE181E" width="4.3" height="28.5"/>
	</g>
</g>
<g>
	<g>
		<defs>
			<polygon id="SVGID_73_" points="137.8,164 145,199.6 145,128.4 			"/>
		</defs>
		<clipPath id="SVGID_74_">
			<use xlink:href="#SVGID_73_"  overflow="visible"/>
		</clipPath>
		
			<linearGradient id="SVGID_75_" gradientUnits="userSpaceOnUse" x1="-830.0475" y1="321.9719" x2="-829.0475" y2="321.9719" gradientTransform="matrix(0 71.191 -71.191 0 23062.9219 59220.3711)">
			<stop  offset="0" style="stop-color:#FFFFFF"/>
			<stop  offset="0.65" style="stop-color:#CE181E"/>
			<stop  offset="1" style="stop-color:#8B0304"/>
		</linearGradient>
		<rect x="137.8" y="128.4" clip-path="url(#SVGID_74_)" fill="url(#SVGID_75_)" width="7.1" height="71.2"/>
	</g>
	<g>
		<defs>
			<polygon id="SVGID_76_" points="137.8,164 145,199.6 145,128.4 			"/>
		</defs>
		<clipPath id="SVGID_77_">
			<use xlink:href="#SVGID_76_"  overflow="visible"/>
		</clipPath>
		
			<linearGradient id="SVGID_78_" gradientUnits="userSpaceOnUse" x1="-830.0475" y1="321.9719" x2="-829.0475" y2="321.9719" gradientTransform="matrix(0 71.191 -71.191 0 23062.9219 59220.3711)">
			<stop  offset="0" style="stop-color:#FFFFFF"/>
			<stop  offset="0.65" style="stop-color:#CE181E"/>
			<stop  offset="1" style="stop-color:#8B0304"/>
		</linearGradient>
		<rect x="137.8" y="128.4" clip-path="url(#SVGID_77_)" fill="url(#SVGID_78_)" width="7.1" height="71.2"/>
	</g>
	<g>
		<defs>
			<polygon id="SVGID_79_" points="137.8,164 145,199.6 145,128.4 			"/>
		</defs>
		<clipPath id="SVGID_80_">
			<use xlink:href="#SVGID_79_"  overflow="visible"/>
		</clipPath>
		
			<linearGradient id="SVGID_81_" gradientUnits="userSpaceOnUse" x1="-830.0475" y1="321.9719" x2="-829.0475" y2="321.9719" gradientTransform="matrix(0 71.191 -71.191 0 23062.9219 59220.3711)">
			<stop  offset="0" style="stop-color:#FFFFFF"/>
			<stop  offset="0.65" style="stop-color:#CE181E"/>
			<stop  offset="1" style="stop-color:#8B0304"/>
		</linearGradient>
		<rect x="137.8" y="128.4" clip-path="url(#SVGID_80_)" fill="url(#SVGID_81_)" width="7.1" height="71.2"/>
	</g>
	<rect x="145" y="128.4" fill-rule="evenodd" clip-rule="evenodd" fill="#CE181E" width="3.6" height="71.2"/>
	<g>
		<defs>
			<polygon id="SVGID_82_" points="155.7,199.6 162.8,164 155.7,128.4 			"/>
		</defs>
		<clipPath id="SVGID_83_">
			<use xlink:href="#SVGID_82_"  overflow="visible"/>
		</clipPath>
		
			<linearGradient id="SVGID_84_" gradientUnits="userSpaceOnUse" x1="-845.9525" y1="344.7481" x2="-844.9525" y2="344.7481" gradientTransform="matrix(0 -71.191 71.191 0 -24383.6895 -60024.5703)">
			<stop  offset="0" style="stop-color:#FFFFFF"/>
			<stop  offset="0.65" style="stop-color:#939598"/>
			<stop  offset="1" style="stop-color:#939598"/>
		</linearGradient>
		<rect x="155.7" y="128.4" clip-path="url(#SVGID_83_)" fill="url(#SVGID_84_)" width="7.1" height="71.2"/>
	</g>
	<rect x="152.1" y="128.4" fill-rule="evenodd" clip-rule="evenodd" fill="#BCBEC0" width="3.6" height="71.2"/>
	<g>
		<g>
			<path fill="#939598" d="M13,178.3h-2.1l-6.7-14.2L1.9,167v11.3H0v-28.5h1.9v15.1c0.7-1.2,3.5-6.3,8.4-15.1h2.1l-7.2,12.5
				L13,178.3z"/>
			<path fill="#939598" d="M32.2,149.8V169c0,6.4-2.3,9.6-6.9,9.6c-2.3,0-4.1-0.8-5.3-2.5c-1.2-1.7-1.8-4-1.8-7.2v-19.2h1.9v19.5
				c0,2.5,0.4,4.3,1.3,5.6c0.9,1.3,2.2,1.9,3.8,1.9c1.6,0,2.9-0.6,3.7-1.9s1.3-3.2,1.3-5.7v-19.4H32.2z"/>
			<path fill="#939598" d="M48.6,151.2c-2.1,0-3.8,1.1-5.1,3.4s-1.9,5.4-1.9,9.4c0,2.6,0.3,4.9,0.9,6.8c0.6,1.9,1.4,3.4,2.5,4.5
				c1.1,1,2.4,1.6,3.8,1.6c1.5,0,2.8-0.3,3.8-0.8v1.8c-1,0.6-2.3,0.9-4,0.9c-1.8,0-3.4-0.6-4.7-1.8s-2.4-2.9-3.1-5.1
				c-0.7-2.2-1.1-4.8-1.1-7.9c0-4.5,0.8-8.1,2.4-10.7c1.6-2.6,3.8-3.9,6.6-3.9c1.7,0,3.3,0.4,4.6,1.2l-0.9,1.7
				C51.3,151.5,50,151.2,48.6,151.2z"/>
			<path fill="#939598" d="M73.5,178.3h-1.9v-14h-9.9v14h-1.9v-28.5h1.9v12.7h9.9v-12.7h1.9V178.3z"/>
			<path fill="#939598" d="M92.5,178.3H82.2v-28.5h10.3v1.8h-8.4v10.8h8v1.8h-8v12.2h8.4V178.3z"/>
			<path fill="#939598" d="M114.9,178.3h-2.4l-10.8-25.6h-0.2c0.2,1.8,0.2,3.5,0.2,5.1v20.4h-1.9v-28.5h2.5l10.7,25.3h0.1
				c-0.1-2.1-0.2-3.9-0.2-5.3v-19.9h1.9V178.3z"/>
		</g>
	</g>
	<g>
		<path fill-rule="evenodd" clip-rule="evenodd" fill="#CE181E" d="M280.3,151.9h7.1v-2.1h-9.3c-3.5,0-6.4,2.9-6.4,6.4v15.7
			c0,3.5,2.9,6.4,6.4,6.4h9.3v-15.2h-8.1v2.1h3.8v10.9h-2.8c-2.3,0-4.3-1.9-4.3-4.3v-15.7C276,153.8,277.9,151.9,280.3,151.9z"/>
		<path fill-rule="evenodd" clip-rule="evenodd" fill="#CE181E" d="M240.6,171.8v-22.1h-4.3v22.1c0,3.5,2.9,6.4,6.4,6.4h5.8v-2.1
			h-3.7C242.5,176.1,240.6,174.2,240.6,171.8z"/>
		<path fill-rule="evenodd" clip-rule="evenodd" fill="#CE181E" d="M252.1,157.6v20.6h4.3v-20.6c0-3.1,2.6-5.7,5.7-5.7h1.4v18.5
			c0,3.1-2.6,5.7-5.7,5.7v2.1h2.1c4.3,0,7.8-3.5,7.8-7.8v-20.6h-7.8C255.6,149.8,252.1,153.3,252.1,157.6z"/>
		<path fill-rule="evenodd" clip-rule="evenodd" fill="#CE181E" d="M215.7,160.5v17.8h4.3v-17.8c0-4.2,3.1-7.7,7.1-8.4v16.1
			c-1.6-1.2-3.6-2-5.7-2v2.3c3.2,0.7,5.7,3.5,5.7,7v2.8h4.3v-28.5h-5C220.5,149.8,215.7,154.6,215.7,160.5z"/>
		<path fill-rule="evenodd" clip-rule="evenodd" fill="#CE181E" d="M190.2,149.8h-0.7h-4.3v28.5h4.3h0l0-26.2c4,0.7,7.1,4.2,7.1,8.4
			v7.1c0,3.7-2.4,6.9-5.7,8v2.6c5.5-0.4,10-5,10-10.6v-7.1C200.9,154.6,196,149.8,190.2,149.8z"/>
		<rect x="205.4" y="149.8" fill-rule="evenodd" clip-rule="evenodd" fill="#CE181E" width="4.3" height="28.5"/>
	</g>
</g>
</svg>
