<svg id="Layer_1" data-name="Layer 1" xmlns="http://www.w3.org/2000/svg" width="500" height="58.81" viewBox="0 0 500 58.81"><defs><style>.cls-1{fill:#fff;}.cls-2{fill:#6f6e6e;}.cls-3{fill:#161741;}.cls-4{fill:#cf132f;}</style></defs><title>logos2</title><rect class="cls-1" x="0.04" y="-4.27" width="500" height="67.36"/><path class="cls-2" d="M326.79,44.66a15.16,15.16,0,0,1-4.87,2.58,15.46,15.46,0,0,1-4,.57,14.28,14.28,0,0,1-4.78-.73,10.59,10.59,0,0,1-3.46-2,8.18,8.18,0,0,1-2.11-2.77,7.51,7.51,0,0,1-.71-3.16,7.43,7.43,0,0,1,.64-3.11,9.87,9.87,0,0,1,1.78-2.65,14.47,14.47,0,0,1,2.68-2.2,26.74,26.74,0,0,1,3.29-1.85q-1.42-2-2.42-3.66a6.75,6.75,0,0,1-1-3.53,7.47,7.47,0,0,1,.38-2.29,5.86,5.86,0,0,1,1.2-2.11,6.37,6.37,0,0,1,2.08-1.53,7.07,7.07,0,0,1,3-.6,7.36,7.36,0,0,1,2.58.44,6,6,0,0,1,2.09,1.28,6.25,6.25,0,0,1,.71,8.33A10.92,10.92,0,0,1,319.51,29l8.88,11.64a13.26,13.26,0,0,0,2-4.07,23.07,23.07,0,0,0,.85-5.84h3.46a17.46,17.46,0,0,1-.91,4.31,22.57,22.57,0,0,1-1.51,3.38,17.2,17.2,0,0,1-1.67,2.43q-0.78,1-1.17,1.4l4,5.1h-4.63ZM316.36,31a13.09,13.09,0,0,0-4.45,3.29,5.92,5.92,0,0,0-1.23,3.62,6.66,6.66,0,0,0,.75,3.22,7.65,7.65,0,0,0,2,2.38,8.94,8.94,0,0,0,2.7,1.49,9.06,9.06,0,0,0,3,.51,7.19,7.19,0,0,0,1.09-.07,11.9,11.9,0,0,0,1.67-.29,11.06,11.06,0,0,0,2-.66,7.9,7.9,0,0,0,2-1.24Zm2.38-13.32A3.84,3.84,0,0,0,317,18a3.31,3.31,0,0,0-1.74,2,4.59,4.59,0,0,0-.2,1.33,5.46,5.46,0,0,0,1,3q1,1.49,2.42,3.27a8.48,8.48,0,0,0,1.27-.87,8,8,0,0,0,1.25-1.2,6.79,6.79,0,0,0,1-1.67,5.36,5.36,0,0,0,.38-2,5.59,5.59,0,0,0-.18-1.31,4.42,4.42,0,0,0-.58-1.35,3.57,3.57,0,0,0-1.1-1.07,3.22,3.22,0,0,0-1.82-.47h0Z"/><path class="cls-3" d="M35.55,57.93H93.1V0.38H35.55V57.93ZM72.43,4.77a25.66,25.66,0,0,1,0,48.76V4.77Zm-8.11-1.3A28.84,28.84,0,0,1,69.75,4c0,13-12.61,23.77-25.66,23.77H38.68A26,26,0,0,1,64.32,3.47ZM44.12,30.52c13,0,25.66,10.72,25.66,23.75a29,29,0,0,1-5.43.58c-13.69,0-25.13-11-25.66-24.33h5.43Z"/><path class="cls-3" d="M112.37,34.21V30.59h12V26h-12V19.23H125.1V14.61H107.46V34c0,4.93,2.09,8.25,7,8.94a1.3,1.3,0,0,0,.29,0h0.09a14,14,0,0,0,1.55.09h9.07V38.48h-9C114.85,38.48,112.37,37.71,112.37,34.21Z"/><polygon class="cls-3" points="128.93 28.06 128.93 43.1 133.83 43.1 133.83 27.97 133.83 14.61 128.93 14.61 128.93 28.06"/><path class="cls-3" d="M147.89,21.85c-6.2,0-10.86,4.27-10.86,10.92V33c0,6.48,4.47,10.67,11,10.67a11.19,11.19,0,0,0,8.73-3.76l-3-2.87a7.14,7.14,0,0,1-5.59,2.38c-3.65,0-6.08-2.13-6.24-5.42H158c0.08-.82.08-1.73,0.08-1.73A10,10,0,0,0,147.89,21.85ZM142,30.55C142.27,28,144.82,26,147.89,26c2.87,0,5.21,2,5.21,4.52H142v0Z"/><path class="cls-3" d="M171.89,26.24a6.91,6.91,0,0,1,5.25,2.26l3-3.16a11,11,0,1,0-.74,15.54l0.05,0q0.36-.33.69-0.69l-3-3.16a6.91,6.91,0,0,1-5.25,2.26,6.27,6.27,0,0,1-6.37-6.16V32.76a6.27,6.27,0,0,1,6-6.52h0.37Z"/><path class="cls-3" d="M188.15,34.22h0V27h4.46V22.5h-4.45V14.6h-4.93V34.51h0c0.14,4.63,2.24,7.78,7,8.45a1.3,1.3,0,0,0,.29,0h0.09a14,14,0,0,0,1.55.09h0.52V38.44h-0.49C190.63,38.49,188.15,37.72,188.15,34.22Z"/><path class="cls-3" d="M201.59,25.56V22.5h-4.87V43.1h4.87V32.24a5.16,5.16,0,0,1,5.56-5.52,9.79,9.79,0,0,1,2,.21V22.19a10.55,10.55,0,0,0-1.47-.12A6.41,6.41,0,0,0,201.59,25.56Z"/><path class="cls-3" d="M221.18,21.89a11,11,0,1,0,.25,0h-0.25Zm0,17.37a6.45,6.45,0,1,1,6.38-6.53V32.8a6.3,6.3,0,0,1-6.14,6.45h-0.24Z"/><polygon class="cls-3" points="235.43 27.58 235.43 43.1 240.34 43.1 240.34 27.78 240.34 14.61 235.43 14.61 235.43 27.58"/><path class="cls-3" d="M258,34.47c0,3.27-1.92,4.66-4.5,4.66s-4.5-1.39-4.5-4.62v-12h-4.93V34.92c0,5.92,4.29,8.71,9.4,8.71S263,40.77,263,34.81V22.5h-5v12h0v0Z"/><polygon class="cls-3" points="281.53 36.5 278.44 32.18 282.27 26.97 285.54 22.5 280.19 22.5 275.73 28.67 271.24 22.5 265.92 22.5 268.97 26.66 273.04 32.22 268.77 38.15 265.23 43.1 270.5 43.1 275.73 35.82 280.96 43.1 286.23 43.1 281.53 36.5"/><path class="cls-4" d="M369.6,9.16l2.4,6.13L358.78,48.61H364l3.75-9.45h13.57l3.7,9.45h10.67L380.27,9.16H369.6Zm0,25.46,5-12.67,5,12.67h-10Z"/><polygon class="cls-4" points="410.26 30.97 422.74 30.97 424.56 26.36 410.26 26.36 410.26 13.91 425.9 13.91 427.79 9.16 400.27 9.16 400.27 48.61 426.31 48.61 428.2 43.86 410.26 43.86 410.26 30.97"/><path class="cls-4" d="M448.55,31h6.58V44.32a10.07,10.07,0,0,1-2.65.34c-8.88,0-11.47-8.23-11.47-15.5,0-7,2.23-15.25,10.81-15.25H461l1.89-4.75h-12.1c-11.75,0-20,8.12-20,20s8,20,20.32,20a37.78,37.78,0,0,0,13.43-2.32V26.36H450.38Z"/></svg>