<?xml version="1.0" encoding="utf-8"?>
<!-- Generator: Adobe Illustrator 19.2.1, SVG Export Plug-In . SVG Version: 6.00 Build 0)  -->
<svg version="1.1" id="Layer_1" xmlns="http://www.w3.org/2000/svg" xmlns:xlink="http://www.w3.org/1999/xlink" x="0px" y="0px"
	 width="277.7px" height="78px" viewBox="0 0 277.7 78" style="enable-background:new 0 0 277.7 78;" xml:space="preserve">
<style type="text/css">
	.st0{fill:#CE181E;}
	.st1{fill:#939598;}
	.st2{fill:#BCBEC0;}
	.st3{fill:url(#SVGID_1_);}
	.st4{fill:url(#SVGID_2_);}
</style>
<path class="st0" d="M270.6,23.8h7.1V26h-5c-2.3,0-4.3,1.9-4.3,4.3v22.1h-4.3V30.2C264.2,26.7,267.1,23.8,270.6,23.8 M251.4,52.3
	h-2.1v-2.1c3.1,0,5.7-2.6,5.7-5.7V26h-1.4c-3.1,0-5.7,2.6-5.7,5.7v20.6h-4.3V31.6c0-4.3,3.5-7.8,7.8-7.8h7.8v20.6
	C259.2,48.8,255.7,52.3,251.4,52.3 M238.6,23.8h-5c-5.9,0-10.7,4.8-10.7,10.7v17.8h4.3V34.5c0-4.2,3.1-7.7,7.1-8.4v26.2h4.3
	L238.6,23.8L238.6,23.8z M218,23.8h-5c-5.9,0-10.7,4.8-10.7,10.7v17.8h4.3V34.5c0-4.2,3.1-7.7,7.1-8.4v16.1c-1.6-1.2-3.6-2-5.7-2
	v2.3c3.2,0.7,5.7,3.5,5.7,7v2.8h4.3L218,23.8L218,23.8z M181.6,23.8h4.3V50c4-0.7,7.1-4.2,7.1-8.4V23.8h4.3v28.5H193v-2.7
	c-1.9,1.7-4.4,2.7-7.1,2.7h-4.3L181.6,23.8L181.6,23.8z M175.2,23.8h-5c-5.9,0-10.7,4.8-10.7,10.7v17.8h4.3V34.5
	c0-4.2,3.1-7.7,7.1-8.4v21.2c0,1.1,0.3,2,0.9,2.8h-6.6v2.1H178v-2.1h-0.7c-1.6,0-2.1-1.3-2.1-2.8V23.8z"/>
<g>
	<path class="st1" d="M1.9,37.6L10,23.8h2L3.9,37.6l8.8,14.7h-2.2L1.9,37.7v14.6H0V23.8h1.9V37.6z"/>
	<path class="st1" d="M22,44l-6.1-20.2h2l4.3,14.6c0.1,0.5,0.4,1.4,0.7,2.8H23c0.2-1.1,0.3-2,0.5-2.8l3.7-14.6h2l-6.4,23.8
		c-0.5,1.8-1.1,3.1-1.8,3.9c-0.7,0.8-1.6,1.2-2.8,1.2c-0.6,0-1.2-0.1-1.7-0.4v-1.8c0.6,0.2,1.1,0.4,1.7,0.4s1.2-0.3,1.6-0.9
		c0.4-0.6,0.9-1.5,1.2-2.9L22,44z"/>
	<path class="st1" d="M46.8,52.3h-2l-4.3-13.1l-5,13.1h-1.9l6-15.1l-5.1-13.4h2l4.2,11.9l4.1-11.9h1.9l-5,13.8L46.8,52.3z"/>
	<path class="st1" d="M67.3,52.3h-1.9v-14h-9.9v14h-1.9V23.8h1.9v12.7h9.9V23.8h1.9V52.3z"/>
	<path class="st1" d="M74.3,23.8h1.9v19.9c0,0.4,0,0.9,0,1.3s-0.1,1.8-0.2,4h0.2l10.7-25.3h2.5v28.5h-1.9V31.9
		c0-1.6,0.1-3.3,0.2-5.1h-0.2L76.7,52.3h-2.4C74.3,52.3,74.3,23.8,74.3,23.8z"/>
</g>
<rect x="119.4" y="3.4" class="st0" width="3.6" height="71.2"/>
<rect x="126.5" y="3.4" class="st2" width="3.6" height="71.2"/>
<rect x="119.4" y="3.4" class="st0" width="3.6" height="71.2"/>
<rect x="126.5" y="3.4" class="st2" width="3.6" height="71.2"/>
<linearGradient id="SVGID_1_" gradientUnits="userSpaceOnUse" x1="133.65" y1="5.4" x2="133.65" y2="76.6" gradientTransform="matrix(1 0 0 -1 0 80)">
	<stop  offset="0" style="stop-color:#FFFFFF"/>
	<stop  offset="1" style="stop-color:#6D6E71"/>
</linearGradient>
<polygon class="st3" points="130.1,74.6 130.1,3.4 137.2,39 "/>
<linearGradient id="SVGID_2_" gradientUnits="userSpaceOnUse" x1="115.8" y1="76.6" x2="115.8" y2="5.4" gradientTransform="matrix(1 0 0 -1 0 80)">
	<stop  offset="0" style="stop-color:#FFFFFF"/>
	<stop  offset="0.65" style="stop-color:#CE181E"/>
	<stop  offset="1" style="stop-color:#8B0304"/>
</linearGradient>
<polygon class="st4" points="119.4,3.4 119.4,74.6 112.2,39 "/>
</svg>
