<svg id="Layer_1" data-name="Layer 1" xmlns="http://www.w3.org/2000/svg" width="500" height="58.81" viewBox="0 0 500 58.81"><defs><style>.cls-1{fill:#fff;}.cls-2{fill:#6f6e6e;}.cls-3{fill:#e32322;}.cls-4{fill:#161741;}</style></defs><title>logos</title><rect class="cls-1" x="0.04" y="-4.27" width="500" height="67.36"/><path class="cls-2" d="M313.78,44.66a15.16,15.16,0,0,1-4.87,2.58,15.46,15.46,0,0,1-3.95.57,14.28,14.28,0,0,1-4.78-.73,10.59,10.59,0,0,1-3.46-2,8.18,8.18,0,0,1-2.11-2.77,7.51,7.51,0,0,1-.71-3.16,7.43,7.43,0,0,1,.64-3.11,9.87,9.87,0,0,1,1.78-2.65A14.47,14.47,0,0,1,299,31.19a26.74,26.74,0,0,1,3.29-1.85q-1.42-2-2.42-3.66a6.75,6.75,0,0,1-1-3.53,7.47,7.47,0,0,1,.38-2.29,5.86,5.86,0,0,1,1.2-2.11,6.37,6.37,0,0,1,2.08-1.53,7.07,7.07,0,0,1,3-.6,7.36,7.36,0,0,1,2.58.44,6,6,0,0,1,2.09,1.28,6.25,6.25,0,0,1,.71,8.33A10.92,10.92,0,0,1,306.5,29l8.88,11.64a13.26,13.26,0,0,0,2-4.07,23.07,23.07,0,0,0,.85-5.84h3.46a17.46,17.46,0,0,1-.91,4.31,22.57,22.57,0,0,1-1.51,3.38,17.2,17.2,0,0,1-1.67,2.43q-0.78,1-1.17,1.4l4,5.1H315.8ZM303.35,31a13.09,13.09,0,0,0-4.45,3.29,5.92,5.92,0,0,0-1.23,3.62,6.66,6.66,0,0,0,.75,3.22,7.65,7.65,0,0,0,2,2.38,8.94,8.94,0,0,0,2.7,1.49,9.06,9.06,0,0,0,3,.51,7.19,7.19,0,0,0,1.09-.07,11.9,11.9,0,0,0,1.67-.29,11.06,11.06,0,0,0,2-.66,7.9,7.9,0,0,0,2-1.24Zm2.38-13.32A3.84,3.84,0,0,0,304,18,3.31,3.31,0,0,0,302.26,20a4.59,4.59,0,0,0-.2,1.33,5.46,5.46,0,0,0,1,3q1,1.49,2.42,3.27a8.48,8.48,0,0,0,1.27-.87A8,8,0,0,0,308,25.53a6.79,6.79,0,0,0,1-1.67,5.36,5.36,0,0,0,.38-2,5.59,5.59,0,0,0-.18-1.31,4.42,4.42,0,0,0-.58-1.35,3.57,3.57,0,0,0-1.1-1.07,3.22,3.22,0,0,0-1.82-.47v0Z"/><path class="cls-3" d="M365.63,26.44a0.4,0.4,0,0,1,.65.13h0l3.39,7.49h0a1.16,1.16,0,0,1-1.11,1.61h-5.81a0.85,0.85,0,0,1-.33-0.07,0.88,0.88,0,0,1-.28-0.19,0.87,0.87,0,0,1-.21-0.94h0l3.61-7.9h0a0.39,0.39,0,0,1,.09-0.13h0Zm-14,16.38h0a2.35,2.35,0,0,1-.32.43,2.29,2.29,0,0,1-.87.6h0l-2.65,1h0a2.24,2.24,0,0,0-.7.4,2.15,2.15,0,0,0-.5.63,2.39,2.39,0,0,0-.24.73,1.49,1.49,0,0,0,0,.57,1.59,1.59,0,0,0,.21.49,1.56,1.56,0,0,0,1.34.73h10.66A1.51,1.51,0,0,0,360,47.22a2.22,2.22,0,0,0-.54-1.84,6.45,6.45,0,0,0-1.32-.9,1,1,0,0,1-.33-1.29h0l0.77-1.26h0a1.32,1.32,0,0,1,.33-0.36,1.21,1.21,0,0,1,.42-0.22,1.89,1.89,0,0,1,.48,0H372a1.69,1.69,0,0,1,.62.1,1.6,1.6,0,0,1,.53.35,1.58,1.58,0,0,1,.37.52h0l2.15,5.32h0A1.14,1.14,0,0,0,376,48a1.26,1.26,0,0,0,.84.36h12.31a1.91,1.91,0,0,0,.68-0.12,1.83,1.83,0,0,0,.58-0.36,1.9,1.9,0,0,0,.55-1.81,2,2,0,0,0-.59-1,1.8,1.8,0,0,0-.49-0.33h0l-1.56-.66h0a3.64,3.64,0,0,1-.8-0.49,4.32,4.32,0,0,1-.67-0.65,3.31,3.31,0,0,1-.51-0.79h0l-13.2-30.8h0a1.44,1.44,0,0,0-.41-0.5,1.9,1.9,0,0,0-1.19-.46H359.74a1.79,1.79,0,0,0-.54.09,1.71,1.71,0,0,0-.88.65,1.75,1.75,0,0,0-.24.5,2.05,2.05,0,0,0,.14,1.37,2.23,2.23,0,0,0,.48.69,2.37,2.37,0,0,0,.7.46h0l1.53,0.67h0a2.63,2.63,0,0,1,.44.23,2,2,0,0,1,.38.34,1.57,1.57,0,0,1,.28.42h0l0.75,1.87h0a2,2,0,0,1-.14,1.6h0l-11,23.54h0Zm69.23-10.24a2,2,0,0,1,.41.46c0.15,0.22.33,0.52,0.5,0.77a2.62,2.62,0,0,0,.53.6,1.94,1.94,0,0,0,2.16.14,1.81,1.81,0,0,0,.57-0.49h0l4.57-6.34h0a2.15,2.15,0,0,0-2.34-3.29,3.57,3.57,0,0,0-1,.48L424.62,26a6.17,6.17,0,0,1-1,.55,4.78,4.78,0,0,1-1.66.36H410.27V16.09H422a6.91,6.91,0,0,1,2.58.45,6.14,6.14,0,0,1,1.17.59h0l3.55,2.34h0a1.66,1.66,0,0,0,2.09-.07,5.77,5.77,0,0,0,.88-1.06,1.75,1.75,0,0,0,.2-1.56,2,2,0,0,0-.25-0.47h0l-3.29-4.75h0a2.85,2.85,0,0,0-.59-0.63,2.71,2.71,0,0,0-1.62-.57H397.39a2.59,2.59,0,0,0-.75,0,1.86,1.86,0,0,0-.66.38,2.1,2.1,0,0,0-.48.59,2.05,2.05,0,0,0,.13,2.17,1.91,1.91,0,0,0,.54.52h0l1.21,0.75h0a1.53,1.53,0,0,1,.38.33,1.46,1.46,0,0,1,.33.93h0V42.09h0a2,2,0,0,1-1.16,1.83l-0.94.5a2.58,2.58,0,0,0-.68.53,2.07,2.07,0,0,0,.22,2.89,2.13,2.13,0,0,0,1.48.5h29.4a3.35,3.35,0,0,0,1-.13,3,3,0,0,0,.87-0.41,2.83,2.83,0,0,0,.7-0.66h0l3.52-4.88h0a1.95,1.95,0,0,0-.11-2.41,1.82,1.82,0,0,0-.55-0.43A2.63,2.63,0,0,0,430,39.2a3.13,3.13,0,0,0-.88.4h0L425.16,42h0a6.64,6.64,0,0,1-2.24.69,11.72,11.72,0,0,1-2.33.24H410.23V32.36H420.4a0.84,0.84,0,0,1,.46.25h0v0ZM466.49,11a0.76,0.76,0,0,1-.45.13,1,1,0,0,1-.31-0.07l-0.59-.23a9.08,9.08,0,0,0-1.67-.4,29.42,29.42,0,0,0-5.67-.57A19.46,19.46,0,0,0,451.25,11a21.81,21.81,0,0,0-5.75,3.15,19.34,19.34,0,0,0-4.12,4.36,20.12,20.12,0,0,0-2.58,5.25,20.35,20.35,0,0,0-1,5.71,18.39,18.39,0,0,0,.71,5.53A17.38,17.38,0,0,0,440.87,40a20.6,20.6,0,0,0,3.46,3.83,16.25,16.25,0,0,0,3.11,2.11,24.78,24.78,0,0,0,3.12,1.4,19.74,19.74,0,0,0,3.72,1,31.86,31.86,0,0,0,5.59.44,25.59,25.59,0,0,0,6-.8A31.16,31.16,0,0,0,471.17,46a25.46,25.46,0,0,0,3.35-1.88A17.77,17.77,0,0,0,476.09,43a1.76,1.76,0,0,0,.43-0.45,1.37,1.37,0,0,0,.15-0.35,2.19,2.19,0,0,0,.06-0.44,2.82,2.82,0,0,0,0-.7,1.47,1.47,0,0,0-.34-0.7,5.24,5.24,0,0,0-.6-0.54,1.2,1.2,0,0,1-.44-0.69,1.52,1.52,0,0,1,0-.37h0v-5h0a2.3,2.3,0,0,1,.58-1.55h0L477,31h0a2,2,0,0,0-1.52-3.3H462.68a1.72,1.72,0,0,0-.62.13,1.83,1.83,0,0,0-.87,2.67,1.77,1.77,0,0,0,.43.47c0.48,0.46,1.08.79,1.41,1.08a2.54,2.54,0,0,1,.57.6,2.06,2.06,0,0,1,.31,1.14h0v6.62h0a2.71,2.71,0,0,1-.13.83,2.65,2.65,0,0,1-.38.75,2.79,2.79,0,0,1-.58.59,2.71,2.71,0,0,1-1.06.45,10.08,10.08,0,0,1-2.42.32,8,8,0,0,1-2.71-.49,8.17,8.17,0,0,1-2.4-1.36,9,9,0,0,1-1.78-2,11,11,0,0,1-1-2.1,22.42,22.42,0,0,1-.71-2.14,15.51,15.51,0,0,1-.49-2.69,25.54,25.54,0,0,1-.09-4.66,19.06,19.06,0,0,1,1.13-5,19.86,19.86,0,0,1,2.16-4.23,7.37,7.37,0,0,1,7.68-3.22,8.88,8.88,0,0,1,2.58,1.19,28,28,0,0,1,2.82,2c1,0.73,1.86,1.48,2.75,2.27a2.41,2.41,0,0,0,4.14-1.74,10,10,0,0,0-.55-2.76,7.64,7.64,0,0,0-.56-1.29h0l-3-5.05h0a1.44,1.44,0,0,0-.35-0.4,1.4,1.4,0,0,0-1.52-.15,1.1,1.1,0,0,0-.43.38,3.74,3.74,0,0,0-.31.61,1.45,1.45,0,0,1-.16.31,0.71,0.71,0,0,1-.18.17h0Z"/><path class="cls-4" d="M22.54,57.93H80.09V0.38H22.54V57.93ZM59.42,4.77a25.66,25.66,0,0,1,0,48.76V4.77Zm-8.11-1.3A28.84,28.84,0,0,1,56.74,4c0,13-12.61,23.77-25.66,23.77H25.67C26.56,14.43,37.62,3.47,51.31,3.47ZM31.11,30.52c13,0,25.66,10.72,25.66,23.75a29,29,0,0,1-5.43.58c-13.69,0-25.13-11-25.66-24.33h5.43Z"/><path class="cls-4" d="M99.36,34.21V30.59h12V26h-12V19.23h12.73V14.61H94.45V34c0,4.93,2.09,8.25,7,8.94a1.3,1.3,0,0,0,.29,0h0.09a14,14,0,0,0,1.55.09h9.07V38.48h-9C101.84,38.48,99.36,37.71,99.36,34.21Z"/><polygon class="cls-4" points="115.92 28.06 115.92 43.1 120.82 43.1 120.82 27.97 120.82 14.61 115.92 14.61 115.92 28.06"/><path class="cls-4" d="M134.88,21.85c-6.2,0-10.86,4.27-10.86,10.92v0.19c0,6.48,4.47,10.67,11,10.67a11.19,11.19,0,0,0,8.73-3.76l-3-2.87a7.14,7.14,0,0,1-5.59,2.38c-3.65,0-6.08-2.13-6.24-5.42H145c0.08-.82.08-1.73,0.08-1.73C145.1,26.49,141,21.85,134.88,21.85ZM129,30.55C129.26,28,131.81,26,134.88,26c2.87,0,5.21,2.05,5.21,4.52H129Z"/><path class="cls-4" d="M158.88,26.24a6.91,6.91,0,0,1,5.25,2.26l3-3.16a11,11,0,1,0-.69,15.49q0.36-.33.69-0.69l-3-3.16a6.91,6.91,0,0,1-5.25,2.26,6.27,6.27,0,0,1-6.37-6.16q0-.16,0-0.32a6.27,6.27,0,0,1,6-6.52h0.36Z"/><path class="cls-4" d="M175.14,34.22h0V26.95h4.46V22.5h-4.45V14.6h-4.93V34.51h0c0.14,4.63,2.24,7.78,7,8.45a1.3,1.3,0,0,0,.29,0h0.09a14,14,0,0,0,1.55.09h0.52V38.44h-0.49C177.62,38.49,175.14,37.72,175.14,34.22Z"/><path class="cls-4" d="M188.58,25.56V22.5h-4.87V43.1h4.87V32.24a5.16,5.16,0,0,1,5.56-5.52,9.79,9.79,0,0,1,2,.21V22.19a10.55,10.55,0,0,0-1.47-.12C191.77,22.09,189.56,23.44,188.58,25.56Z"/><path class="cls-4" d="M208.17,21.89a11,11,0,1,0,.25,0h-0.25Zm0,17.37a6.45,6.45,0,1,1,6.38-6.53V32.8a6.3,6.3,0,0,1-6.14,6.45h-0.24Z"/><polygon class="cls-4" points="222.42 27.58 222.42 43.1 227.33 43.1 227.33 27.78 227.33 14.61 222.42 14.61 222.42 27.58"/><path class="cls-4" d="M245,34.47c0,3.27-1.92,4.66-4.5,4.66S236,37.74,236,34.51v-12h-4.93V34.92c0,5.92,4.29,8.71,9.4,8.71S250,40.77,250,34.81V22.5H245v12h0Z"/><polygon class="cls-4" points="268.52 36.5 265.43 32.18 269.26 26.97 272.53 22.5 267.18 22.5 262.72 28.67 258.23 22.5 252.91 22.5 255.96 26.66 260.03 32.22 255.76 38.15 252.22 43.1 257.49 43.1 262.72 35.82 267.95 43.1 273.22 43.1 268.52 36.5"/></svg>