<?xml version="1.0" encoding="utf-8"?>
<!-- Generator: Adobe Illustrator 18.0.0, SVG Export Plug-In . SVG Version: 6.00 Build 0)  -->
<!DOCTYPE svg PUBLIC "-//W3C//DTD SVG 1.1//EN" "http://www.w3.org/Graphics/SVG/1.1/DTD/svg11.dtd">
<svg version="1.1" id="Layer_1" xmlns="http://www.w3.org/2000/svg" xmlns:xlink="http://www.w3.org/1999/xlink" x="0px" y="0px"
	 viewBox="0 0 310 78" enable-background="new 0 0 310 78" xml:space="preserve">
<image overflow="visible" width="293" height="78" xlink:href="5FCF4172.jpg"  transform="matrix(1 0 0 1 -687 -251.7114)">
</image>
<g>
	<defs>
		<polygon id="SVGID_1_" points="-565.7,-363.6 -558.6,-328 -558.6,-399.2 		"/>
	</defs>
	<clipPath id="SVGID_2_">
		<use xlink:href="#SVGID_1_"  overflow="visible"/>
	</clipPath>
	
		<linearGradient id="SVGID_3_" gradientUnits="userSpaceOnUse" x1="-835.6895" y1="205.8927" x2="-834.6895" y2="205.8927" gradientTransform="matrix(0 71.191 -71.191 0 14095.6006 59094.4063)">
		<stop  offset="0" style="stop-color:#FFFFFF"/>
		<stop  offset="0.65" style="stop-color:#CE181E"/>
		<stop  offset="1" style="stop-color:#8B0304"/>
	</linearGradient>
	<rect x="-565.7" y="-399.2" clip-path="url(#SVGID_2_)" fill="url(#SVGID_3_)" width="7.1" height="71.2"/>
</g>
<g>
	<defs>
		<polygon id="SVGID_4_" points="-565.7,-363.6 -558.6,-328 -558.6,-399.2 		"/>
	</defs>
	<clipPath id="SVGID_5_">
		<use xlink:href="#SVGID_4_"  overflow="visible"/>
	</clipPath>
	
		<linearGradient id="SVGID_6_" gradientUnits="userSpaceOnUse" x1="-835.6895" y1="205.8927" x2="-834.6895" y2="205.8927" gradientTransform="matrix(0 71.191 -71.191 0 14095.6006 59094.4063)">
		<stop  offset="0" style="stop-color:#FFFFFF"/>
		<stop  offset="0.65" style="stop-color:#CE181E"/>
		<stop  offset="1" style="stop-color:#8B0304"/>
	</linearGradient>
	<rect x="-565.7" y="-399.2" clip-path="url(#SVGID_5_)" fill="url(#SVGID_6_)" width="7.1" height="71.2"/>
</g>
<g>
	<defs>
		<polygon id="SVGID_7_" points="-565.7,-363.6 -558.6,-328 -558.6,-399.2 		"/>
	</defs>
	<clipPath id="SVGID_8_">
		<use xlink:href="#SVGID_7_"  overflow="visible"/>
	</clipPath>
	
		<linearGradient id="SVGID_9_" gradientUnits="userSpaceOnUse" x1="-835.6895" y1="205.8927" x2="-834.6895" y2="205.8927" gradientTransform="matrix(0 71.191 -71.191 0 14095.6006 59094.4063)">
		<stop  offset="0" style="stop-color:#FFFFFF"/>
		<stop  offset="0.65" style="stop-color:#CE181E"/>
		<stop  offset="1" style="stop-color:#8B0304"/>
	</linearGradient>
	<rect x="-565.7" y="-399.2" clip-path="url(#SVGID_8_)" fill="url(#SVGID_9_)" width="7.1" height="71.2"/>
</g>
<rect x="-558.6" y="-399.2" fill-rule="evenodd" clip-rule="evenodd" fill="#CE181E" width="3.6" height="71.2"/>
<g>
	<defs>
		<polygon id="SVGID_10_" points="-547.8,-328 -540.7,-363.6 -547.8,-399.2 		"/>
	</defs>
	<clipPath id="SVGID_11_">
		<use xlink:href="#SVGID_10_"  overflow="visible"/>
	</clipPath>
	
		<linearGradient id="SVGID_12_" gradientUnits="userSpaceOnUse" x1="-840.3105" y1="208.9045" x2="-839.3105" y2="208.9045" gradientTransform="matrix(0 -71.191 71.191 0 -15416.376 -60150.5313)">
		<stop  offset="0" style="stop-color:#FFFFFF"/>
		<stop  offset="0.65" style="stop-color:#939598"/>
		<stop  offset="1" style="stop-color:#939598"/>
	</linearGradient>
	<rect x="-547.8" y="-399.2" clip-path="url(#SVGID_11_)" fill="url(#SVGID_12_)" width="7.1" height="71.2"/>
</g>
<rect x="-551.4" y="-399.2" fill-rule="evenodd" clip-rule="evenodd" fill="#BCBEC0" width="3.6" height="71.2"/>
<g>
	<path fill-rule="evenodd" clip-rule="evenodd" fill="#939598" d="M-670.9-503.3l-8.2-15.2l7.9-13.3h-1.9l-7.6,13.4h-0.1v-13.4h-1.7
		v28.5h1.7v-15h0.1l7.8,15H-670.9z M-663.2-502.8c3.2-0.2,4.7-1,5.8-5.1l6.4-23.9h-1.9l-5.4,22.1c-0.1-1.4-1.4-5.7-1.8-7l-3.9-15.1
		h-1.8l6.1,21.5l0.6,2c-0.2,2.7-2.4,3.5-4.4,3.5L-663.2-502.8z M-632.2-503.3l-5.9-15l5.3-13.5h-1.6l-4.6,11.8h-0.1l-4.1-11.8h-2
		l5.2,13.8l-5.9,14.7h1.8l4.9-13h0.1l4.8,13H-632.2z M-611.4-503.3v-28.5h-1.8v12.9h-9.4v-12.9h-1.8v28.5h1.8v-14h9.4v14H-611.4z
		 M-588.8-503.3v-28.5h-2.2l-9.4,26.1l0.2-1.1v-25h-1.8v28.5h2.2l9.4-25.6l-0.2,1.5v24.1H-588.8z"/>
	<path fill-rule="evenodd" clip-rule="evenodd" fill="#CE181E" d="M-407.3-531.8h7.1v2.1h-5c-2.3,0-4.3,1.9-4.3,4.3v22.1h-4.3v-22.1
		C-413.7-529-410.8-531.8-407.3-531.8 M-426.5-503.4h-2.1v-2.1c3.1,0,5.7-2.6,5.7-5.7v-18.5h-1.4c-3.1,0-5.7,2.6-5.7,5.7v20.6h-4.3
		V-524c0-4.3,3.5-7.8,7.8-7.8h7.8v20.6C-418.7-506.9-422.2-503.4-426.5-503.4 M-439.3-531.8h-5c-5.9,0-10.7,4.8-10.7,10.7v17.8h4.3
		v-17.8c0-4.2,3.1-7.7,7.1-8.4v26.2h4.3V-531.8z M-460-531.8h-5c-5.9,0-10.7,4.8-10.7,10.7v17.8h4.3v-17.8c0-4.2,3.1-7.7,7.1-8.4
		v16.1c-1.6-1.2-3.6-2-5.7-2v2.3c3.2,0.7,5.7,3.5,5.7,7v2.8h4.3V-531.8z M-496.3-531.8h4.3v26.2c4-0.7,7.1-4.2,7.1-8.4v-17.8h4.3
		v28.5h-4.3v-2.7c-1.9,1.7-4.4,2.7-7.1,2.7h-4.3V-531.8z M-502.7-531.8h-5c-5.9,0-10.7,4.8-10.7,10.7v17.8h4.3v-17.8
		c0-4.2,3.1-7.7,7.1-8.4v21.2c0,1.1,0.3,2,0.9,2.8h-6.6v2.1h12.8v-2.1h-0.7c-1.6,0-2.1-1.3-2.1-2.8V-531.8z"/>
	<g>
		<defs>
			<polygon id="SVGID_13_" points="-565.7,-517.6 -558.6,-482 -558.6,-553.2 			"/>
		</defs>
		<clipPath id="SVGID_14_">
			<use xlink:href="#SVGID_13_"  overflow="visible"/>
		</clipPath>
		
			<linearGradient id="SVGID_15_" gradientUnits="userSpaceOnUse" x1="-837.8527" y1="205.8927" x2="-836.8527" y2="205.8927" gradientTransform="matrix(0 71.191 -71.191 0 14095.6006 59094.4063)">
			<stop  offset="0" style="stop-color:#FFFFFF"/>
			<stop  offset="0.65" style="stop-color:#CE181E"/>
			<stop  offset="1" style="stop-color:#8B0304"/>
		</linearGradient>
		<rect x="-565.7" y="-553.2" clip-path="url(#SVGID_14_)" fill="url(#SVGID_15_)" width="7.1" height="71.2"/>
	</g>
	<g>
		<defs>
			<polygon id="SVGID_16_" points="-565.7,-517.6 -558.6,-482 -558.6,-553.2 			"/>
		</defs>
		<clipPath id="SVGID_17_">
			<use xlink:href="#SVGID_16_"  overflow="visible"/>
		</clipPath>
		
			<linearGradient id="SVGID_18_" gradientUnits="userSpaceOnUse" x1="-837.8527" y1="205.8927" x2="-836.8527" y2="205.8927" gradientTransform="matrix(0 71.191 -71.191 0 14095.6006 59094.4063)">
			<stop  offset="0" style="stop-color:#FFFFFF"/>
			<stop  offset="0.65" style="stop-color:#CE181E"/>
			<stop  offset="1" style="stop-color:#8B0304"/>
		</linearGradient>
		<rect x="-565.7" y="-553.2" clip-path="url(#SVGID_17_)" fill="url(#SVGID_18_)" width="7.1" height="71.2"/>
	</g>
	<g>
		<defs>
			<polygon id="SVGID_19_" points="-565.7,-517.6 -558.6,-482 -558.6,-553.2 			"/>
		</defs>
		<clipPath id="SVGID_20_">
			<use xlink:href="#SVGID_19_"  overflow="visible"/>
		</clipPath>
		
			<linearGradient id="SVGID_21_" gradientUnits="userSpaceOnUse" x1="-837.8527" y1="205.8927" x2="-836.8527" y2="205.8927" gradientTransform="matrix(0 71.191 -71.191 0 14095.6006 59094.4063)">
			<stop  offset="0" style="stop-color:#FFFFFF"/>
			<stop  offset="0.65" style="stop-color:#CE181E"/>
			<stop  offset="1" style="stop-color:#8B0304"/>
		</linearGradient>
		<rect x="-565.7" y="-553.2" clip-path="url(#SVGID_20_)" fill="url(#SVGID_21_)" width="7.1" height="71.2"/>
	</g>
	<rect x="-558.6" y="-553.2" fill-rule="evenodd" clip-rule="evenodd" fill="#CE181E" width="3.6" height="71.2"/>
	<g>
		<defs>
			<polygon id="SVGID_22_" points="-547.8,-482 -540.7,-517.6 -547.8,-553.2 			"/>
		</defs>
		<clipPath id="SVGID_23_">
			<use xlink:href="#SVGID_22_"  overflow="visible"/>
		</clipPath>
		
			<linearGradient id="SVGID_24_" gradientUnits="userSpaceOnUse" x1="-838.1473" y1="208.9045" x2="-837.1473" y2="208.9045" gradientTransform="matrix(0 -71.191 71.191 0 -15416.376 -60150.5313)">
			<stop  offset="0" style="stop-color:#FFFFFF"/>
			<stop  offset="0.65" style="stop-color:#939598"/>
			<stop  offset="1" style="stop-color:#939598"/>
		</linearGradient>
		<rect x="-547.8" y="-553.2" clip-path="url(#SVGID_23_)" fill="url(#SVGID_24_)" width="7.1" height="71.2"/>
	</g>
	<rect x="-551.4" y="-553.2" fill-rule="evenodd" clip-rule="evenodd" fill="#BCBEC0" width="3.6" height="71.2"/>
</g>
<g>
	<path fill-rule="evenodd" clip-rule="evenodd" fill="#CE181E" d="M-424.7-371.4c0-2.3,1.9-4.3,4.3-4.3h7.1v-2.1h-9.3
		c-3.5,0-6.4,2.9-6.4,6.4v15.7c0,3.5,2.9,6.4,6.4,6.4h9.3v-15.2h-8.1v2.1h3.8v10.9h-2.8c-2.3,0-4.3-1.9-4.3-4.3V-371.4z"/>
	<path fill-rule="evenodd" clip-rule="evenodd" fill="#CE181E" d="M-460.1-355.8v-22.1h-4.3v22.1c0,3.5,2.9,6.4,6.4,6.4h5.8v-2.1
		h-3.7C-458.2-351.5-460.1-353.4-460.1-355.8z"/>
	<path fill-rule="evenodd" clip-rule="evenodd" fill="#CE181E" d="M-448.6-370v20.6h4.3V-370c0-3.1,2.6-5.7,5.7-5.7h1.4v18.5
		c0,3.1-2.6,5.7-5.7,5.7v2.1h2.1c4.3,0,7.8-3.5,7.8-7.8v-20.6h-7.8C-445.1-377.8-448.6-374.3-448.6-370z"/>
	<path fill-rule="evenodd" clip-rule="evenodd" fill="#CE181E" d="M-485-367.2v17.8h4.3v-17.8c0-4.2,3.1-7.7,7.1-8.4v16.1
		c-1.6-1.2-3.6-2-5.7-2v2.3c3.2,0.7,5.7,3.5,5.7,7v2.8h4.3v-28.5h-5C-480.2-377.8-485-373-485-367.2z"/>
	<path fill-rule="evenodd" clip-rule="evenodd" fill="#CE181E" d="M-510.5-377.8h-0.7h-4.3v28.5h4.3h0l0-26.2c4,0.7,7.1,4.2,7.1,8.4
		v7.1c0,3.7-2.4,6.9-5.7,8v2.6c5.5-0.4,10-5,10-10.6v-7.1C-499.8-373-504.6-377.8-510.5-377.8z"/>
	<rect x="-495.3" y="-377.8" fill-rule="evenodd" clip-rule="evenodd" fill="#CE181E" width="4.3" height="28.5"/>
</g>
<text transform="matrix(1 0 0 1 -971.9988 -426.825)" font-family="'BebasNeueBook'" font-size="42.9149" letter-spacing="2">КУХНИ</text>
<g>
	
		<text transform="matrix(1 0 0 1 -708.1507 -349.3622)" fill="#939598" font-family="'OpenSans-CondensedLight'" font-size="39.92" letter-spacing="2">KUCHEN</text>
</g>
<g>
	<text transform="matrix(1 0 0 1 -696.9097 -503.3372)" font-family="'OpenSans-CondensedLight'" font-size="39.92">KUCHEN</text>
</g>
<path fill-rule="evenodd" clip-rule="evenodd" fill="#CE181E" d="M-407.4-81.2h9.3v2.1h-7.1c-2.3,0-4.3,1.9-4.3,4.3v11.5h-4.3v-11.5
	C-413.8-78.3-410.9-81.2-407.4-81.2"/>
<path fill-rule="evenodd" clip-rule="evenodd" fill="#CE181E" d="M-407.4-52.8c-3.5,0-6.4-2.9-6.4-6.4v-11.6h4.3v11.6
	c0,2.3,1.9,4.3,4.3,4.3h5v2.1H-407.4"/>
<path fill-rule="evenodd" clip-rule="evenodd" fill="#CE181E" d="M-442.8-52.8c-3.5,0-6.4-2.9-6.4-6.4v-22.1h4.3v22.1
	c0,2.3,1.9,4.3,4.3,4.3h3.7v2.1H-442.8"/>
<path fill-rule="evenodd" clip-rule="evenodd" fill="#CE181E" d="M-425.6-52.8h-2.1v-2.1c3.1,0,5.7-2.6,5.7-5.7v-18.5h-1.4
	c-3.1,0-5.7,2.6-5.7,5.7v20.6h-4.3v-20.6c0-4.3,3.5-7.8,7.8-7.8h7.8v20.6C-417.8-56.3-421.3-52.8-425.6-52.8"/>
<path fill-rule="evenodd" clip-rule="evenodd" fill="#CE181E" d="M-454.2-81.2h-5c-5.9,0-10.7,4.8-10.7,10.7v17.8h4.3v-17.8
	c0-4.2,3.1-7.7,7.1-8.4v16.1c-1.6-1.2-3.6-2-5.7-2v2.3c3.2,0.7,5.7,3.5,5.7,7v2.8h4.3V-81.2z"/>
<g>
	<defs>
		<polygon id="SVGID_25_" points="-550.5,-67 -543.4,-31.4 -543.4,-102.6 		"/>
	</defs>
	<clipPath id="SVGID_26_">
		<use xlink:href="#SVGID_25_"  overflow="visible"/>
	</clipPath>
	
		<linearGradient id="SVGID_27_" gradientUnits="userSpaceOnUse" x1="-831.5231" y1="205.6802" x2="-830.5231" y2="205.6802" gradientTransform="matrix(0 71.191 -71.191 0 14095.6006 59094.4063)">
		<stop  offset="0" style="stop-color:#FFFFFF"/>
		<stop  offset="0.65" style="stop-color:#CE181E"/>
		<stop  offset="1" style="stop-color:#8B0304"/>
	</linearGradient>
	<rect x="-550.5" y="-102.6" clip-path="url(#SVGID_26_)" fill="url(#SVGID_27_)" width="7.1" height="71.2"/>
</g>
<g>
	<defs>
		<polygon id="SVGID_28_" points="-550.5,-67 -543.4,-31.4 -543.4,-102.6 		"/>
	</defs>
	<clipPath id="SVGID_29_">
		<use xlink:href="#SVGID_28_"  overflow="visible"/>
	</clipPath>
	
		<linearGradient id="SVGID_30_" gradientUnits="userSpaceOnUse" x1="-831.5231" y1="205.6802" x2="-830.5231" y2="205.6802" gradientTransform="matrix(0 71.191 -71.191 0 14095.6006 59094.4063)">
		<stop  offset="0" style="stop-color:#FFFFFF"/>
		<stop  offset="0.65" style="stop-color:#CE181E"/>
		<stop  offset="1" style="stop-color:#8B0304"/>
	</linearGradient>
	<rect x="-550.5" y="-102.6" clip-path="url(#SVGID_29_)" fill="url(#SVGID_30_)" width="7.1" height="71.2"/>
</g>
<g>
	<defs>
		<polygon id="SVGID_31_" points="-550.5,-67 -543.4,-31.4 -543.4,-102.6 		"/>
	</defs>
	<clipPath id="SVGID_32_">
		<use xlink:href="#SVGID_31_"  overflow="visible"/>
	</clipPath>
	
		<linearGradient id="SVGID_33_" gradientUnits="userSpaceOnUse" x1="-831.5231" y1="205.6802" x2="-830.5231" y2="205.6802" gradientTransform="matrix(0 71.191 -71.191 0 14095.6006 59094.4063)">
		<stop  offset="0" style="stop-color:#FFFFFF"/>
		<stop  offset="0.65" style="stop-color:#CE181E"/>
		<stop  offset="1" style="stop-color:#8B0304"/>
	</linearGradient>
	<rect x="-550.5" y="-102.6" clip-path="url(#SVGID_32_)" fill="url(#SVGID_33_)" width="7.1" height="71.2"/>
</g>
<rect x="-543.4" y="-102.6" fill-rule="evenodd" clip-rule="evenodd" fill="#CE181E" width="3.6" height="71.2"/>
<g>
	<defs>
		<polygon id="SVGID_34_" points="-532.7,-31.4 -525.6,-67 -532.7,-102.6 		"/>
	</defs>
	<clipPath id="SVGID_35_">
		<use xlink:href="#SVGID_34_"  overflow="visible"/>
	</clipPath>
	
		<linearGradient id="SVGID_36_" gradientUnits="userSpaceOnUse" x1="-844.4769" y1="209.1171" x2="-843.4769" y2="209.1171" gradientTransform="matrix(0 -71.191 71.191 0 -15416.376 -60150.5313)">
		<stop  offset="0" style="stop-color:#FFFFFF"/>
		<stop  offset="0.65" style="stop-color:#939598"/>
		<stop  offset="1" style="stop-color:#939598"/>
	</linearGradient>
	<rect x="-532.7" y="-102.6" clip-path="url(#SVGID_35_)" fill="url(#SVGID_36_)" width="7.1" height="71.2"/>
</g>
<rect x="-536.2" y="-102.6" fill-rule="evenodd" clip-rule="evenodd" fill="#BCBEC0" width="3.6" height="71.2"/>
<path fill-rule="evenodd" clip-rule="evenodd" fill="#CE181E" d="M-495.4-81.2h-0.7h-4.3v28.5h4.3h0l0-26.2c4,0.7,7.1,4.2,7.1,8.4
	v7.1c0,3.7-2.4,6.9-5.7,8v2.6c5.5-0.4,10-5,10-10.6v-7.1C-484.7-76.4-489.5-81.2-495.4-81.2z"/>
<rect x="-480.1" y="-81.2" fill-rule="evenodd" clip-rule="evenodd" fill="#CE181E" width="4.3" height="28.5"/>
<rect x="-402.4" y="-67.9" fill-rule="evenodd" clip-rule="evenodd" fill="#CE181E" width="4.3" height="15.2"/>
<rect x="-406.3" y="-67.9" fill-rule="evenodd" clip-rule="evenodd" fill="#CE181E" width="7.1" height="2.1"/>
<g>
	
		<text transform="matrix(1 0 0 1 -693.016 -52.7524)" fill="#939598" font-family="'OpenSans-CondensedLight'" font-size="39.92" letter-spacing="2">KUCHEN</text>
</g>
<path fill="#939598" d="M-311.2,171.2h-2.1L-320,157l-2.2,2.9v11.3h-1.9v-28.5h1.9v15.1c0.7-1.2,3.5-6.3,8.4-15.1h2.1l-7.2,12.5
	L-311.2,171.2z"/>
<polygon fill="#939598" points="-272.8,171.2 -275.3,160.9 -282.2,160.9 -284.7,171.2 -286.7,171.2 -279.8,142.8 -277.8,142.8 
	-270.8,171.2 "/>
<path fill="#939598" d="M-275.7,159l-2.5-10.6c-0.3-1.2-0.5-2.3-0.6-3.4c-0.1,1.1-0.3,2.3-0.5,3.4l-2.4,10.6H-275.7z"/>
<path fill="#939598" d="M-257.2,144.1c-2.1,0-3.8,1.1-5.1,3.4c-1.3,2.3-1.9,5.4-1.9,9.4c0,2.6,0.3,4.9,0.9,6.8
	c0.6,1.9,1.4,3.4,2.5,4.5c1.1,1,2.4,1.6,3.8,1.6c1.5,0,2.8-0.3,3.8-0.8v1.8c-1,0.6-2.3,0.9-4,0.9c-1.8,0-3.4-0.6-4.7-1.8
	c-1.4-1.2-2.4-2.9-3.1-5.1c-0.7-2.2-1.1-4.8-1.1-7.9c0-4.5,0.8-8.1,2.4-10.7c1.6-2.6,3.8-3.9,6.6-3.9c1.7,0,3.3,0.4,4.6,1.2
	l-0.9,1.7C-254.6,144.5-255.9,144.1-257.2,144.1z"/>
<path fill="#939598" d="M-232.4,171.2h-1.9v-14h-9.9v14h-1.9v-28.5h1.9v12.7h9.9v-12.7h1.9V171.2z"/>
<path fill="#939598" d="M-213.4,171.2h-10.3v-28.5h10.3v1.8h-8.4v10.8h8v1.8h-8v12.2h8.4V171.2z"/>
<path fill="#939598" d="M-191,171.2h-2.4l-10.8-25.6h-0.2c0.2,1.8,0.2,3.5,0.2,5.1v20.4h-1.9v-28.5h2.5l10.7,25.3h0.1
	c-0.1-2.1-0.2-3.9-0.2-5.3v-19.9h1.9V171.2z"/>
<g>
	<text transform="matrix(1 0 0 1 -976.4347 -349.3622)" fill="#949597" font-family="'BebasNeueBook'" font-size="42.9149">kuchen</text>
</g>
<g>
	
		<text transform="matrix(1 0 0 1 -995.6566 -275.3622)" fill="#949597" font-family="'OpenSans-CondensedLight'" font-size="42.9149">KUCHEN</text>
</g>
<g>
	<text transform="matrix(1 0 0 1 -986.2615 -220.3622)" fill="#949597" font-family="'MyriadPro-Cond'" font-size="42.9149">KUCHEN</text>
</g>
<g>
	<path fill-rule="evenodd" clip-rule="evenodd" fill="#939598" d="M39.2-199.4L31-214.6l7.9-13.3H37l-7.6,13.4h-0.1v-13.4h-1.7v28.5
		h1.7v-15h0.1l7.8,15H39.2z M46.9-198.9c3.2-0.2,4.7-1,5.8-5.1l6.4-23.9h-1.9l-5.4,22.1c-0.1-1.4-1.4-5.7-1.8-7l-3.9-15.1h-1.8
		l6.1,21.5l0.6,2c-0.2,2.7-2.4,3.5-4.4,3.5L46.9-198.9z M78-199.4l-5.9-15l5.3-13.5h-1.6L71.3-216h-0.1l-4.1-11.8h-2l5.2,13.8
		l-5.9,14.7h1.8l4.9-13h0.1l4.8,13H78z M98.8-199.4v-28.5H97v12.9h-9.4v-12.9h-1.8v28.5h1.8v-14H97v14H98.8z M121.3-199.4v-28.5
		h-2.2l-9.4,26.1l0.2-1.1v-25h-1.8v28.5h2.2l9.4-25.6l-0.2,1.5v24.1H121.3z"/>
	<path fill-rule="evenodd" clip-rule="evenodd" fill="#CE181E" d="M302.9-227.9h7.1v2.1h-5c-2.3,0-4.3,1.9-4.3,4.3v22.1h-4.3v-22.1
		C296.5-225,299.4-227.9,302.9-227.9 M283.7-199.4h-2.1v-2.1c3.1,0,5.7-2.6,5.7-5.7v-18.5h-1.4c-3.1,0-5.7,2.6-5.7,5.7v20.6h-4.3
		v-20.6c0-4.3,3.5-7.8,7.8-7.8h7.8v20.6C291.5-202.9,288-199.4,283.7-199.4 M270.8-227.9h-5c-5.9,0-10.7,4.8-10.7,10.7v17.8h4.3
		v-17.8c0-4.2,3.1-7.7,7.1-8.4v26.2h4.3V-227.9z M250.2-227.9h-5c-5.9,0-10.7,4.8-10.7,10.7v17.8h4.3v-17.8c0-4.2,3.1-7.7,7.1-8.4
		v16.1c-1.6-1.2-3.6-2-5.7-2v2.3c3.2,0.7,5.7,3.5,5.7,7v2.8h4.3V-227.9z M213.9-227.9h4.3v26.2c4-0.7,7.1-4.2,7.1-8.4v-17.8h4.3
		v28.5h-4.3v-2.7c-1.9,1.7-4.4,2.7-7.1,2.7h-4.3V-227.9z M207.5-227.9h-5c-5.9,0-10.7,4.8-10.7,10.7v17.8h4.3v-17.8
		c0-4.2,3.1-7.7,7.1-8.4v21.2c0,1.1,0.3,2,0.9,2.8h-6.6v2.1h12.8v-2.1h-0.7c-1.6,0-2.1-1.3-2.1-2.8V-227.9z"/>
	<g>
		<defs>
			<polygon id="SVGID_37_" points="144.5,-213.7 151.6,-178.1 151.6,-249.3 			"/>
		</defs>
		<clipPath id="SVGID_38_">
			<use xlink:href="#SVGID_37_"  overflow="visible"/>
		</clipPath>
		
			<linearGradient id="SVGID_39_" gradientUnits="userSpaceOnUse" x1="-833.5833" y1="195.9173" x2="-832.5833" y2="195.9173" gradientTransform="matrix(0 71.191 -71.191 0 14095.6006 59094.4063)">
			<stop  offset="0" style="stop-color:#FFFFFF"/>
			<stop  offset="0.65" style="stop-color:#CE181E"/>
			<stop  offset="1" style="stop-color:#8B0304"/>
		</linearGradient>
		<rect x="144.5" y="-249.3" clip-path="url(#SVGID_38_)" fill="url(#SVGID_39_)" width="7.1" height="71.2"/>
	</g>
	<g>
		<defs>
			<polygon id="SVGID_40_" points="144.5,-213.7 151.6,-178.1 151.6,-249.3 			"/>
		</defs>
		<clipPath id="SVGID_41_">
			<use xlink:href="#SVGID_40_"  overflow="visible"/>
		</clipPath>
		
			<linearGradient id="SVGID_42_" gradientUnits="userSpaceOnUse" x1="-833.5833" y1="195.9173" x2="-832.5833" y2="195.9173" gradientTransform="matrix(0 71.191 -71.191 0 14095.6006 59094.4063)">
			<stop  offset="0" style="stop-color:#FFFFFF"/>
			<stop  offset="0.65" style="stop-color:#CE181E"/>
			<stop  offset="1" style="stop-color:#8B0304"/>
		</linearGradient>
		<rect x="144.5" y="-249.3" clip-path="url(#SVGID_41_)" fill="url(#SVGID_42_)" width="7.1" height="71.2"/>
	</g>
	<g>
		<defs>
			<polygon id="SVGID_43_" points="144.5,-213.7 151.6,-178.1 151.6,-249.3 			"/>
		</defs>
		<clipPath id="SVGID_44_">
			<use xlink:href="#SVGID_43_"  overflow="visible"/>
		</clipPath>
		
			<linearGradient id="SVGID_45_" gradientUnits="userSpaceOnUse" x1="-833.5833" y1="195.9173" x2="-832.5833" y2="195.9173" gradientTransform="matrix(0 71.191 -71.191 0 14095.6006 59094.4063)">
			<stop  offset="0" style="stop-color:#FFFFFF"/>
			<stop  offset="0.65" style="stop-color:#CE181E"/>
			<stop  offset="1" style="stop-color:#8B0304"/>
		</linearGradient>
		<rect x="144.5" y="-249.3" clip-path="url(#SVGID_44_)" fill="url(#SVGID_45_)" width="7.1" height="71.2"/>
	</g>
	<rect x="151.6" y="-249.3" fill-rule="evenodd" clip-rule="evenodd" fill="#CE181E" width="3.6" height="71.2"/>
	<g>
		<defs>
			<polygon id="SVGID_46_" points="162.3,-178.1 169.5,-213.7 162.3,-249.3 			"/>
		</defs>
		<clipPath id="SVGID_47_">
			<use xlink:href="#SVGID_46_"  overflow="visible"/>
		</clipPath>
		
			<linearGradient id="SVGID_48_" gradientUnits="userSpaceOnUse" x1="-842.4167" y1="218.8799" x2="-841.4167" y2="218.8799" gradientTransform="matrix(0 -71.191 71.191 0 -15416.376 -60150.5313)">
			<stop  offset="0" style="stop-color:#FFFFFF"/>
			<stop  offset="0.65" style="stop-color:#939598"/>
			<stop  offset="1" style="stop-color:#939598"/>
		</linearGradient>
		<rect x="162.3" y="-249.3" clip-path="url(#SVGID_47_)" fill="url(#SVGID_48_)" width="7.1" height="71.2"/>
	</g>
	<rect x="158.8" y="-249.3" fill-rule="evenodd" clip-rule="evenodd" fill="#BCBEC0" width="3.6" height="71.2"/>
</g>
<path fill-rule="evenodd" clip-rule="evenodd" fill="#CE181E" d="M270.6-102.1h7.1v2.1h-5c-2.3,0-4.3,1.9-4.3,4.3v22.1h-4.3v-22.1
	C264.2-99.3,267.1-102.1,270.6-102.1 M251.4-73.7h-2.1v-2.1c3.1,0,5.7-2.6,5.7-5.7V-100h-1.4c-3.1,0-5.7,2.6-5.7,5.7v20.6h-4.3
	v-20.6c0-4.3,3.5-7.8,7.8-7.8h7.8v20.6C259.2-77.2,255.7-73.7,251.4-73.7 M238.6-102.1h-5c-5.9,0-10.7,4.8-10.7,10.7v17.8h4.3v-17.8
	c0-4.2,3.1-7.7,7.1-8.4v26.2h4.3V-102.1z M218-102.1h-5c-5.9,0-10.7,4.8-10.7,10.7v17.8h4.3v-17.8c0-4.2,3.1-7.7,7.1-8.4v16.1
	c-1.6-1.2-3.6-2-5.7-2v2.3c3.2,0.7,5.7,3.5,5.7,7v2.8h4.3V-102.1z M181.6-102.1h4.3v26.2c4-0.7,7.1-4.2,7.1-8.4v-17.8h4.3v28.5H193
	v-2.7c-1.9,1.7-4.4,2.7-7.1,2.7h-4.3V-102.1z M175.2-102.1h-5c-5.9,0-10.7,4.8-10.7,10.7v17.8h4.3v-17.8c0-4.2,3.1-7.7,7.1-8.4v21.2
	c0,1.1,0.3,2,0.9,2.8h-6.6v2.1h12.8v-2.1h-0.7c-1.6,0-2.1-1.3-2.1-2.8V-102.1z"/>
<g>
	<defs>
		<polygon id="SVGID_49_" points="-77.3,-87.9 -70.1,-52.3 -70.1,-123.5 		"/>
	</defs>
	<clipPath id="SVGID_50_">
		<use xlink:href="#SVGID_49_"  overflow="visible"/>
	</clipPath>
	
		<linearGradient id="SVGID_51_" gradientUnits="userSpaceOnUse" x1="-831.8169" y1="199.0322" x2="-830.8169" y2="199.0322" gradientTransform="matrix(0 71.191 -71.191 0 14095.6006 59094.4063)">
		<stop  offset="0" style="stop-color:#FFFFFF"/>
		<stop  offset="0.65" style="stop-color:#CE181E"/>
		<stop  offset="1" style="stop-color:#8B0304"/>
	</linearGradient>
	<rect x="-77.3" y="-123.5" clip-path="url(#SVGID_50_)" fill="url(#SVGID_51_)" width="7.1" height="71.2"/>
</g>
<polygon fill="none" points="-77.3,-87.9 -70.1,-52.3 -70.1,-123.5 "/>
<polygon fill="none" points="-77.3,-87.9 -70.1,-52.3 -70.1,-123.5 "/>
<rect x="-70.1" y="-123.5" fill-rule="evenodd" clip-rule="evenodd" fill="#CE181E" width="3.6" height="71.2"/>
<g>
	<defs>
		<polygon id="SVGID_52_" points="-59.4,-52.3 -52.3,-87.9 -59.4,-123.5 		"/>
	</defs>
	<clipPath id="SVGID_53_">
		<use xlink:href="#SVGID_52_"  overflow="visible"/>
	</clipPath>
	
		<linearGradient id="SVGID_54_" gradientUnits="userSpaceOnUse" x1="-844.1831" y1="215.7651" x2="-843.1831" y2="215.7651" gradientTransform="matrix(0 -71.191 71.191 0 -15416.376 -60150.5313)">
		<stop  offset="0" style="stop-color:#FFFFFF"/>
		<stop  offset="0.65" style="stop-color:#939598"/>
		<stop  offset="1" style="stop-color:#939598"/>
	</linearGradient>
	<rect x="-59.4" y="-123.5" clip-path="url(#SVGID_53_)" fill="url(#SVGID_54_)" width="7.1" height="71.2"/>
</g>
<rect x="-63" y="-123.5" fill-rule="evenodd" clip-rule="evenodd" fill="#BCBEC0" width="3.6" height="71.2"/>
<g>
	<path fill="#939598" d="M1.9-88.4l8.1-13.8H12L3.9-88.4l8.8,14.7h-2.2L1.9-88.2v14.6H0v-28.5h1.9V-88.4z"/>
	<path fill="#939598" d="M22-82l-6.1-20.2h2l4.3,14.6c0.1,0.5,0.4,1.4,0.7,2.8H23c0.2-1.1,0.3-2,0.5-2.8l3.7-14.6h2l-6.4,23.8
		c-0.5,1.8-1.1,3.1-1.8,3.9c-0.7,0.8-1.6,1.2-2.8,1.2c-0.6,0-1.2-0.1-1.7-0.4v-1.8c0.6,0.2,1.1,0.4,1.7,0.4c0.6,0,1.2-0.3,1.6-0.9
		c0.4-0.6,0.9-1.5,1.2-2.9L22-82z"/>
	<path fill="#939598" d="M46.8-73.6h-2l-4.3-13.1l-5,13.1h-1.9l6-15.1l-5.1-13.4h2l4.2,11.9l4.1-11.9h1.9l-5,13.8L46.8-73.6z"/>
	<path fill="#939598" d="M67.3-73.6h-1.9v-14h-9.9v14h-1.9v-28.5h1.9v12.7h9.9v-12.7h1.9V-73.6z"/>
	<path fill="#939598" d="M74.3-102.1h1.9v19.9c0,0.4,0,0.9,0,1.3s-0.1,1.8-0.2,4h0.2l10.7-25.3h2.5v28.5h-1.9v-20.4
		c0-1.6,0.1-3.3,0.2-5.1h-0.2L76.7-73.6h-2.4V-102.1z"/>
</g>
<g>
	<g>
		<path fill="#939598" d="M13,193h-2.1l-6.7-14.2l-2.2,2.9V193H0v-28.5h1.9v15.1c0.7-1.2,3.5-6.3,8.4-15.1h2.1L5.3,177L13,193z"/>
		<path fill="#939598" d="M18.5,193v-28.5h1.9V193H18.5z"/>
		<path fill="#939598" d="M33.8,193h-1.9v-26.7h-5.7v-1.8h13.3v1.8h-5.7V193z"/>
		<path fill="#939598" d="M53.3,165.9c-2.1,0-3.8,1.1-5.1,3.4s-1.9,5.4-1.9,9.4c0,2.6,0.3,4.9,0.9,6.8c0.6,1.9,1.4,3.4,2.5,4.5
			s2.4,1.6,3.8,1.6c1.5,0,2.8-0.3,3.8-0.8v1.8c-1,0.6-2.3,0.9-4,0.9c-1.8,0-3.4-0.6-4.7-1.8s-2.4-2.9-3.1-5.1
			c-0.7-2.2-1.1-4.8-1.1-7.9c0-4.5,0.8-8.1,2.4-10.7c1.6-2.6,3.8-3.9,6.6-3.9c1.7,0,3.3,0.4,4.6,1.2l-0.9,1.7
			C56,166.2,54.7,165.9,53.3,165.9z"/>
		<path fill="#939598" d="M78.2,193h-1.9v-14h-9.9v14h-1.9v-28.5h1.9v12.7h9.9v-12.7h1.9V193z"/>
		<path fill="#939598" d="M97.2,193H86.8v-28.5h10.3v1.8h-8.4v10.8h8v1.8h-8v12.2h8.4V193z"/>
		<path fill="#939598" d="M119.6,193h-2.4l-10.8-25.6h-0.2c0.2,1.8,0.2,3.5,0.2,5.1V193h-1.9v-28.5h2.5l10.7,25.3h0.1
			c-0.1-2.1-0.2-3.9-0.2-5.3v-19.9h1.9V193z"/>
		<path fill="#939598" d="M139.2,185.5c0,2.3-0.6,4.2-1.9,5.7c-1.3,1.4-2.9,2.2-5,2.2c-2.3,0-4.1-0.3-5.5-1v-2.1
			c0.7,0.4,1.5,0.7,2.5,0.9c1,0.2,2,0.3,3,0.3c1.5,0,2.7-0.6,3.6-1.7c0.9-1.1,1.4-2.5,1.4-4.2c0-1.6-0.3-2.8-1-3.7
			c-0.7-0.9-1.9-1.8-3.8-2.8c-1.5-0.7-2.6-1.5-3.3-2.2s-1.3-1.5-1.6-2.4c-0.4-0.9-0.5-2-0.5-3.3c0-1.4,0.3-2.7,0.9-3.7
			c0.6-1.1,1.4-1.9,2.4-2.5c1-0.6,2.2-0.9,3.4-0.9c1.1,0,2.1,0.1,3,0.4c0.9,0.2,1.6,0.5,2.1,0.8l-0.7,1.8c-1.4-0.7-2.9-1.1-4.4-1.1
			c-1.4,0-2.5,0.5-3.4,1.4s-1.3,2.2-1.3,3.8c0,1.6,0.3,2.8,1,3.7c0.6,0.9,1.9,1.8,3.7,2.7c1.9,0.9,3.3,2,4.2,3.3
			C138.7,182.2,139.2,183.7,139.2,185.5z"/>
	</g>
</g>
<g>
	<path fill-rule="evenodd" clip-rule="evenodd" fill="#CE181E" d="M302.9,166.6h7.1v-2.1h-9.3c-3.5,0-6.4,2.9-6.4,6.4v15.7
		c0,3.5,2.9,6.4,6.4,6.4h9.3v-15.2h-8.1v2.1h3.8v10.9h-2.8c-2.3,0-4.3-1.9-4.3-4.3v-15.7C298.6,168.5,300.5,166.6,302.9,166.6z"/>
	<path fill-rule="evenodd" clip-rule="evenodd" fill="#CE181E" d="M263.2,186.6v-22.1h-4.3v22.1c0,3.5,2.9,6.4,6.4,6.4h5.8v-2.1
		h-3.7C265.1,190.8,263.2,188.9,263.2,186.6z"/>
	<path fill-rule="evenodd" clip-rule="evenodd" fill="#CE181E" d="M274.7,172.3V193h4.3v-20.6c0-3.1,2.6-5.7,5.7-5.7h1.4v18.5
		c0,3.1-2.6,5.7-5.7,5.7v2.1h2.1c4.3,0,7.8-3.5,7.8-7.8v-20.6h-7.8C278.2,164.5,274.7,168,274.7,172.3z"/>
	<path fill-rule="evenodd" clip-rule="evenodd" fill="#CE181E" d="M238.3,175.2V193h4.3v-17.8c0-4.2,3.1-7.7,7.1-8.4v16.1
		c-1.6-1.2-3.6-2-5.7-2v2.3c3.2,0.7,5.7,3.5,5.7,7v2.8h4.3v-28.5h-5C243.1,164.5,238.3,169.3,238.3,175.2z"/>
	<path fill-rule="evenodd" clip-rule="evenodd" fill="#CE181E" d="M212.8,164.5h-0.7h-4.3V193h4.3h0l0-26.2c4,0.7,7.1,4.2,7.1,8.4
		v7.1c0,3.7-2.4,6.9-5.7,8v2.6c5.5-0.4,10-5,10-10.6v-7.1C223.5,169.3,218.7,164.5,212.8,164.5z"/>
	<rect x="228" y="164.5" fill-rule="evenodd" clip-rule="evenodd" fill="#CE181E" width="4.3" height="28.5"/>
</g>
<g>
	<g>
		<path fill="#939598" d="M32.2,23.8v19.2c0,6.4-2.3,9.6-6.9,9.6c-2.3,0-4.1-0.8-5.3-2.5c-1.2-1.7-1.8-4-1.8-7.2V23.8h1.9v19.5
			c0,2.5,0.4,4.3,1.3,5.6c0.9,1.3,2.2,1.9,3.8,1.9c1.6,0,2.9-0.6,3.7-1.9s1.3-3.2,1.3-5.7V23.8H32.2z"/>
		<path fill="#939598" d="M21,18.7c0-0.6,0.1-1,0.4-1.2c0.3-0.2,0.5-0.4,0.9-0.4c0.3,0,0.6,0.1,0.8,0.4c0.2,0.2,0.4,0.6,0.4,1.2
			c0,0.6-0.1,1-0.4,1.2c-0.2,0.3-0.5,0.4-0.8,0.4c-0.3,0-0.6-0.1-0.9-0.4C21.1,19.6,21,19.2,21,18.7z"/>
		<path fill="#939598" d="M27,18.7c0-0.6,0.1-1,0.4-1.2c0.3-0.2,0.5-0.4,0.8-0.4c0.3,0,0.6,0.1,0.9,0.4c0.2,0.2,0.4,0.6,0.4,1.2
			c0,0.6-0.1,1-0.4,1.2c-0.2,0.3-0.5,0.4-0.9,0.4c-0.3,0-0.6-0.1-0.8-0.4C27.1,19.6,27,19.2,27,18.7z"/>
	</g>
	<path fill="#939598" d="M13,52.3h-2.1L4.1,38.1L1.9,41v11.3H0V23.8h1.9v15.1c0.7-1.2,3.5-6.3,8.4-15.1h2.1L5.3,36.4L13,52.3z"/>
	<path fill="#939598" d="M48.6,25.2c-2.1,0-3.8,1.1-5.1,3.4S41.6,34,41.6,38c0,2.6,0.3,4.9,0.9,6.8c0.6,1.9,1.4,3.4,2.5,4.5
		c1.1,1,2.4,1.6,3.8,1.6c1.5,0,2.8-0.3,3.8-0.8v1.8c-1,0.6-2.3,0.9-4,0.9c-1.8,0-3.4-0.6-4.7-1.8s-2.4-2.9-3.1-5.1
		C40,43.7,39.6,41,39.6,38c0-4.5,0.8-8.1,2.4-10.7c1.6-2.6,3.8-3.9,6.6-3.9c1.7,0,3.3,0.4,4.6,1.2l-0.9,1.7
		C51.3,25.6,50,25.2,48.6,25.2z"/>
	<path fill="#939598" d="M73.5,52.3h-1.9v-14h-9.9v14h-1.9V23.8h1.9v12.7h9.9V23.8h1.9V52.3z"/>
	<path fill="#939598" d="M92.5,52.3H82.2V23.8h10.3v1.8h-8.4v10.8h8v1.8h-8v12.2h8.4V52.3z"/>
	<path fill="#939598" d="M114.9,52.3h-2.4l-10.8-25.6h-0.2c0.2,1.8,0.2,3.5,0.2,5.1v20.4h-1.9V23.8h2.5l10.7,25.3h0.1
		c-0.1-2.1-0.2-3.9-0.2-5.3V23.8h1.9V52.3z"/>
</g>
<g>
	<path fill-rule="evenodd" clip-rule="evenodd" fill="#CE181E" d="M280.3,26h7.1v-2.1h-9.3c-3.5,0-6.4,2.9-6.4,6.4v15.7
		c0,3.5,2.9,6.4,6.4,6.4h9.3V37.1h-8.1v2.1h3.8v10.9h-2.8c-2.3,0-4.3-1.9-4.3-4.3V30.2C276,27.9,277.9,26,280.3,26z"/>
	<path fill-rule="evenodd" clip-rule="evenodd" fill="#CE181E" d="M240.6,45.9V23.8h-4.3v22.1c0,3.5,2.9,6.4,6.4,6.4h5.8v-2.1h-3.7
		C242.5,50.2,240.6,48.2,240.6,45.9z"/>
	<path fill-rule="evenodd" clip-rule="evenodd" fill="#CE181E" d="M252.1,31.6v20.6h4.3V31.6c0-3.1,2.6-5.7,5.7-5.7h1.4v18.5
		c0,3.1-2.6,5.7-5.7,5.7v2.1h2.1c4.3,0,7.8-3.5,7.8-7.8V23.8h-7.8C255.6,23.8,252.1,27.3,252.1,31.6z"/>
	<path fill-rule="evenodd" clip-rule="evenodd" fill="#CE181E" d="M215.7,34.5v17.8h4.3V34.5c0-4.2,3.1-7.7,7.1-8.4v16.1
		c-1.6-1.2-3.6-2-5.7-2v2.3c3.2,0.7,5.7,3.5,5.7,7v2.8h4.3V23.8h-5C220.5,23.8,215.7,28.6,215.7,34.5z"/>
	<path fill-rule="evenodd" clip-rule="evenodd" fill="#CE181E" d="M190.2,23.8h-0.7h-4.3v28.5h4.3h0l0-26.2c4,0.7,7.1,4.2,7.1,8.4
		v7.1c0,3.7-2.4,6.9-5.7,8v2.6c5.5-0.4,10-5,10-10.6v-7.1C200.9,28.6,196,23.8,190.2,23.8z"/>
	<rect x="205.4" y="23.8" fill-rule="evenodd" clip-rule="evenodd" fill="#CE181E" width="4.3" height="28.5"/>
</g>
<rect x="145" y="2.5" fill-rule="evenodd" clip-rule="evenodd" fill="#CE181E" width="3.6" height="71.2"/>
<rect x="152.1" y="2.5" fill-rule="evenodd" clip-rule="evenodd" fill="#BCBEC0" width="3.6" height="71.2"/>
<rect x="145" y="2.5" fill="#CE181E" width="3.6" height="71.2"/>
<rect x="152.1" y="2.5" fill="#BCBEC0" width="3.6" height="71.2"/>
<linearGradient id="SVGID_55_" gradientUnits="userSpaceOnUse" x1="159.2644" y1="73.6505" x2="159.2644" y2="2.4595">
	<stop  offset="0" style="stop-color:#FFFFFF"/>
	<stop  offset="1" style="stop-color:#6D6E71"/>
</linearGradient>
<polygon fill="url(#SVGID_55_)" points="155.7,73.7 155.7,2.5 162.8,38.1 "/>
<linearGradient id="SVGID_56_" gradientUnits="userSpaceOnUse" x1="141.4064" y1="2.4595" x2="141.4064" y2="73.6505">
	<stop  offset="0" style="stop-color:#FFFFFF"/>
	<stop  offset="0.65" style="stop-color:#CE181E"/>
	<stop  offset="1" style="stop-color:#8B0304"/>
</linearGradient>
<polygon fill="url(#SVGID_56_)" points="145,2.5 145,73.7 137.8,38.1 "/>
<rect x="167.6" y="144.1" fill-rule="evenodd" clip-rule="evenodd" fill="#CE181E" width="3.6" height="71.2"/>
<rect x="174.8" y="144.1" fill-rule="evenodd" clip-rule="evenodd" fill="#BCBEC0" width="3.6" height="71.2"/>
<rect x="167.6" y="144.1" fill="#CE181E" width="3.6" height="71.2"/>
<rect x="174.8" y="144.1" fill="#BCBEC0" width="3.6" height="71.2"/>
<linearGradient id="SVGID_57_" gradientUnits="userSpaceOnUse" x1="181.885" y1="215.2622" x2="181.885" y2="144.0712">
	<stop  offset="0" style="stop-color:#FFFFFF"/>
	<stop  offset="1" style="stop-color:#6D6E71"/>
</linearGradient>
<polygon fill="url(#SVGID_57_)" points="178.3,215.3 178.3,144.1 185.4,179.7 "/>
<linearGradient id="SVGID_58_" gradientUnits="userSpaceOnUse" x1="164.027" y1="144.0712" x2="164.027" y2="215.2622">
	<stop  offset="0" style="stop-color:#FFFFFF"/>
	<stop  offset="0.65" style="stop-color:#CE181E"/>
	<stop  offset="1" style="stop-color:#8B0304"/>
</linearGradient>
<polygon fill="url(#SVGID_58_)" points="167.6,144.1 167.6,215.3 160.5,179.7 "/>
<rect x="119.4" y="-122.6" fill-rule="evenodd" clip-rule="evenodd" fill="#CE181E" width="3.6" height="71.2"/>
<rect x="126.5" y="-122.6" fill-rule="evenodd" clip-rule="evenodd" fill="#BCBEC0" width="3.6" height="71.2"/>
<rect x="119.4" y="-122.6" fill="#CE181E" width="3.6" height="71.2"/>
<rect x="126.5" y="-122.6" fill="#BCBEC0" width="3.6" height="71.2"/>
<linearGradient id="SVGID_59_" gradientUnits="userSpaceOnUse" x1="133.6526" y1="-51.3659" x2="133.6526" y2="-122.5569">
	<stop  offset="0" style="stop-color:#FFFFFF"/>
	<stop  offset="1" style="stop-color:#6D6E71"/>
</linearGradient>
<polygon fill="url(#SVGID_59_)" points="130.1,-51.4 130.1,-122.6 137.2,-87 "/>
<linearGradient id="SVGID_60_" gradientUnits="userSpaceOnUse" x1="115.7945" y1="-122.5569" x2="115.7945" y2="-51.3659">
	<stop  offset="0" style="stop-color:#FFFFFF"/>
	<stop  offset="0.65" style="stop-color:#CE181E"/>
	<stop  offset="1" style="stop-color:#8B0304"/>
</linearGradient>
<polygon fill="url(#SVGID_60_)" points="119.4,-122.6 119.4,-51.4 112.2,-87 "/>
</svg>
