<svg id="Layer_1" data-name="Layer 1" xmlns="http://www.w3.org/2000/svg" width="460.92" height="58.81" viewBox="0 0 460.92 58.81"><defs><style>.cls-1{fill:#6f6e6e;}.cls-2{fill:#e32322;fill-rule:evenodd;}.cls-3{fill:#161741;}</style></defs><title>logos</title><path class="cls-1" d="M295.08,44.86a15.36,15.36,0,0,1-4.93,2.61,15.66,15.66,0,0,1-4,.58,14.47,14.47,0,0,1-4.84-.74,10.73,10.73,0,0,1-3.51-2,8.29,8.29,0,0,1-2.14-2.81,7.61,7.61,0,0,1-.72-3.2,7.53,7.53,0,0,1,.65-3.15,10,10,0,0,1,1.8-2.68,14.66,14.66,0,0,1,2.68-2.25,27.09,27.09,0,0,1,3.33-1.87q-1.44-2-2.45-3.71a6.84,6.84,0,0,1-1-3.58,7.57,7.57,0,0,1,.38-2.32,5.94,5.94,0,0,1,1.22-2.14,6.45,6.45,0,0,1,2.11-1.55,7.16,7.16,0,0,1,3.08-.61,7.46,7.46,0,0,1,2.61.45,6.12,6.12,0,0,1,2.12,1.3,6.37,6.37,0,0,1,2,4.73,6.39,6.39,0,0,1-1.28,3.71A11.06,11.06,0,0,1,287.7,29l9,11.79a13.44,13.44,0,0,0,2.07-4.12,23.37,23.37,0,0,0,.86-5.92h3.51a17.69,17.69,0,0,1-.92,4.37,22.87,22.87,0,0,1-1.53,3.42A17.43,17.43,0,0,1,299,41q-0.79,1-1.19,1.42l4.09,5.17h-4.77ZM284.51,31A13.26,13.26,0,0,0,280,34.33,6,6,0,0,0,278.75,38a6.75,6.75,0,0,0,.76,3.26,7.75,7.75,0,0,0,2,2.41,9.06,9.06,0,0,0,2.74,1.51,9.18,9.18,0,0,0,3,.52c0.24,0,.61,0,1.1-0.07a12.06,12.06,0,0,0,1.69-.29,11.21,11.21,0,0,0,2-.67,8,8,0,0,0,2-1.26Zm2.41-13.5a3.89,3.89,0,0,0-1.7.34,3.35,3.35,0,0,0-1.81,2.09,4.65,4.65,0,0,0-.2,1.35,5.53,5.53,0,0,0,1,3.08q1,1.51,2.45,3.31a8.59,8.59,0,0,0,1.29-.88,8.15,8.15,0,0,0,1.29-1.31,6.88,6.88,0,0,0,1-1.69,5.43,5.43,0,0,0,.39-2.07,5.66,5.66,0,0,0-.18-1.33,4.48,4.48,0,0,0-.59-1.37,3.62,3.62,0,0,0-1.11-1.08A3.26,3.26,0,0,0,286.91,17.46Z"/><path class="cls-2" d="M347.61,26.4a0.41,0.41,0,0,1,.66.13h0l3.43,7.59h0a1.18,1.18,0,0,1-1.12,1.63h-5.89a0.86,0.86,0,0,1-.33-0.07,0.89,0.89,0,0,1-.28-0.19,0.88,0.88,0,0,1-.21-0.95h0l3.66-8h0a0.4,0.4,0,0,1,.09-0.13h0ZM333.43,43h0a2.38,2.38,0,0,1-.32.44,2.32,2.32,0,0,1-.88.61h0l-2.68,1h0a2.27,2.27,0,0,0-.71.41,2.18,2.18,0,0,0-.51.64,2.42,2.42,0,0,0-.24.74,1.51,1.51,0,0,0,0,.58,1.61,1.61,0,0,0,.21.5,1.58,1.58,0,0,0,1.36.74h10.8a1.53,1.53,0,0,0,1.49-1.2,2.25,2.25,0,0,0-.55-1.86,6.53,6.53,0,0,0-1.34-.91,1,1,0,0,1-.33-1.31h0l0.78-1.28h0a1.34,1.34,0,0,1,.33-0.36,1.23,1.23,0,0,1,.43-0.22,1.92,1.92,0,0,1,.49,0h12.35a1.71,1.71,0,0,1,.63.1,1.62,1.62,0,0,1,.54.35,1.6,1.6,0,0,1,.37.53h0l2.18,5.39h0a1.15,1.15,0,0,0,.27.38,1.28,1.28,0,0,0,.85.36h12.47a1.94,1.94,0,0,0,.69-0.12,1.85,1.85,0,0,0,.59-0.36,1.92,1.92,0,0,0,.56-1.83,2,2,0,0,0-.22-0.56,2,2,0,0,0-.38-0.47,1.82,1.82,0,0,0-.5-0.33h0l-1.58-.67h0a3.69,3.69,0,0,1-.81-0.5,4.38,4.38,0,0,1-.68-0.66,3.35,3.35,0,0,1-.52-0.8h0L355.2,11.12h0a1.46,1.46,0,0,0-.42-0.51,1.93,1.93,0,0,0-1.21-.47h0l-11.92,0h0a1.81,1.81,0,0,0-.55.09,1.73,1.73,0,0,0-.89.66,1.77,1.77,0,0,0-.24.51,2.08,2.08,0,0,0,.14,1.39,2.26,2.26,0,0,0,.49.7,2.4,2.4,0,0,0,.71.47h0l1.55,0.68h0a2.67,2.67,0,0,1,.45.23,2,2,0,0,1,.38.34,1.59,1.59,0,0,1,.28.43h0l0.76,1.89h0a2.06,2.06,0,0,1-.14,1.62h0L333.43,43h0Zm70.14-10.38a2,2,0,0,1,.42.47c0.15,0.22.33,0.53,0.51,0.78a2.65,2.65,0,0,0,.54.61,2,2,0,0,0,1.46.39,2,2,0,0,0,.73-0.25,1.83,1.83,0,0,0,.58-0.5h0l4.63-6.42h0a2.15,2.15,0,0,0,.36-1.44,2.17,2.17,0,0,0-.64-1.34,2.14,2.14,0,0,0-2.09-.55,3.62,3.62,0,0,0-1,.49L407.38,26a6.25,6.25,0,0,1-1,.56,4.84,4.84,0,0,1-1.68.36H392.84v-11h11.89a7,7,0,0,1,2.61.46,6.22,6.22,0,0,1,1.19.6h0l3.6,2.37h0a1.68,1.68,0,0,0,2.12-.07,5.85,5.85,0,0,0,.89-1.07,1.77,1.77,0,0,0,.2-1.58,2,2,0,0,0-.25-0.48h0l-3.33-4.81h0a2.89,2.89,0,0,0-.6-0.64,2.75,2.75,0,0,0-1.64-.58h0l-29.73,0h0a2.62,2.62,0,0,0-.76,0,1.88,1.88,0,0,0-.67.38,2.13,2.13,0,0,0-.49.6,2.08,2.08,0,0,0,.13,2.2,1.94,1.94,0,0,0,.55.53h0l1.23,0.76h0a1.55,1.55,0,0,1,.38.33,1.48,1.48,0,0,1,.33.94h0v26.4h0a2,2,0,0,1-1.18,1.85c-0.29.16-.65,0.34-0.95,0.51a2.61,2.61,0,0,0-.69.54,2.08,2.08,0,0,0-.49,1.51,2.1,2.1,0,0,0,.71,1.42,2.16,2.16,0,0,0,1.5.51h29.79a3.39,3.39,0,0,0,1-.13,3.09,3.09,0,0,0,.88-0.42,2.87,2.87,0,0,0,.71-0.67h0l3.57-4.94h0a2,2,0,0,0,.23-1.88,2,2,0,0,0-.34-0.56,1.84,1.84,0,0,0-.56-0.44,2.66,2.66,0,0,0-1.85-.23,3.17,3.17,0,0,0-.89.41h0l-4,2.45h0a6.73,6.73,0,0,1-2.27.7,11.87,11.87,0,0,1-2.36.24h0l-10.5,0V32.4H403.1a0.85,0.85,0,0,1,.47.25h0Zm46.23-21.9a0.77,0.77,0,0,1-.46.13,1.06,1.06,0,0,1-.31-0.07l-0.6-.23a9.2,9.2,0,0,0-1.69-.41A29.81,29.81,0,0,0,441,9.56a19.72,19.72,0,0,0-6.64,1.25A22.1,22.1,0,0,0,428.53,14a19.6,19.6,0,0,0-4.17,4.42,20.39,20.39,0,0,0-2.61,5.32,20.62,20.62,0,0,0-1,5.79,18.63,18.63,0,0,0,.72,5.6,17.61,17.61,0,0,0,2.37,5,20.87,20.87,0,0,0,3.51,3.88,16.46,16.46,0,0,0,3.15,2.14,25.11,25.11,0,0,0,3.16,1.42,20,20,0,0,0,3.77,1,32.28,32.28,0,0,0,5.66.45,25.93,25.93,0,0,0,6.06-.81,31.57,31.57,0,0,0,5.39-1.95,25.8,25.8,0,0,0,3.39-1.9,18,18,0,0,0,1.6-1.16,1.78,1.78,0,0,0,.44-0.46,1.39,1.39,0,0,0,.15-0.35,2.22,2.22,0,0,0,.06-0.45,2.86,2.86,0,0,0,0-.71,1.49,1.49,0,0,0-.34-0.71,5.31,5.31,0,0,0-.61-0.55,1.22,1.22,0,0,1-.45-0.7,1.54,1.54,0,0,1,0-.37h0l0-5.05h0a2.33,2.33,0,0,1,.59-1.57h0l1.11-1.24h0a2,2,0,0,0-1.54-3.34h-13a1.74,1.74,0,0,0-.63.13,1.85,1.85,0,0,0-.88,2.71,1.79,1.79,0,0,0,.44.48c0.49,0.47,1.09.8,1.43,1.09a2.57,2.57,0,0,1,.58.61,2.09,2.09,0,0,1,.31,1.15h0v6.71h0a2.75,2.75,0,0,1-.13.84,2.69,2.69,0,0,1-.38.76,2.83,2.83,0,0,1-.59.6,2.75,2.75,0,0,1-1.07.46,10.21,10.21,0,0,1-2.45.32,8.08,8.08,0,0,1-2.75-.5,8.28,8.28,0,0,1-2.43-1.38,9.09,9.09,0,0,1-1.8-2,11.14,11.14,0,0,1-1-2.13,22.72,22.72,0,0,1-.72-2.17,15.71,15.71,0,0,1-.5-2.73,25.88,25.88,0,0,1-.09-4.72,19.31,19.31,0,0,1,1.14-5.07,20.12,20.12,0,0,1,2.19-4.29,7.47,7.47,0,0,1,7.78-3.26A9,9,0,0,1,447,16.52a28.38,28.38,0,0,1,2.86,2c1,0.74,1.88,1.5,2.79,2.3a2.44,2.44,0,0,0,4.19-1.76,10.11,10.11,0,0,0-.56-2.8,7.74,7.74,0,0,0-.57-1.31h0l-3-5.12h0a1.46,1.46,0,0,0-.35-0.41,1.42,1.42,0,0,0-1.54-.15,1.11,1.11,0,0,0-.44.38,3.79,3.79,0,0,0-.31.62,1.47,1.47,0,0,1-.16.31,0.72,0.72,0,0,1-.18.17h0Z"/><path class="cls-3" d="M0,58.31H58.31V0H0V58.31ZM37.37,4.45a26,26,0,0,1,0,49.4V4.45ZM29.15,3.13a29.22,29.22,0,0,1,5.5.58c0,13.21-12.78,24.08-26,24.08H3.17C4.07,14.24,15.28,3.13,29.15,3.13ZM8.68,30.54c13.18,0,26,10.86,26,24.06a29.41,29.41,0,0,1-5.5.59c-13.87,0-25.46-11.16-26-24.65H8.68Z"/><path class="cls-3" d="M77.83,34.28V30.61H90V25.92H77.83V19.1H90.73V14.42H72.86V34.07c0,5,2.12,8.36,7.08,9.06a1.32,1.32,0,0,0,.29,0h0.09a14.18,14.18,0,0,0,1.57.09h9.19V38.6H81.93C80.35,38.6,77.83,37.82,77.83,34.28Z"/><polygon class="cls-3" points="94.61 28.05 94.61 43.28 99.58 43.28 99.58 27.95 99.58 14.42 94.61 14.42 94.61 28.05"/><path class="cls-3" d="M113.82,21.75c-6.28,0-11,4.33-11,11.06V33c0,6.57,4.53,10.81,11.11,10.81A11.34,11.34,0,0,0,122.77,40l-3-2.91a7.23,7.23,0,0,1-5.66,2.41c-3.7,0-6.16-2.16-6.32-5.49h16.3c0.08-.83.08-1.75,0.08-1.75C124.18,26.45,120.06,21.75,113.82,21.75Zm-5.91,8.82C108.13,28,110.71,26,113.82,26c2.91,0,5.28,2.08,5.28,4.58H107.92Z"/><path class="cls-3" d="M138.14,26.2a7,7,0,0,1,5.32,2.29l3.08-3.2a11.11,11.11,0,1,0,0,15l-3.08-3.2a7,7,0,0,1-5.32,2.29,6.35,6.35,0,0,1-6.45-6.57A6.35,6.35,0,0,1,138.14,26.2Z"/><path class="cls-3" d="M154.61,34.29h0V26.92h4.52V22.41h-4.51v-8h-5V34.58h0c0.14,4.69,2.27,7.88,7.07,8.56a1.32,1.32,0,0,0,.29,0h0.09a14.18,14.18,0,0,0,1.57.09h0.53l0-4.67h-0.5C157.13,38.61,154.61,37.83,154.61,34.29Z"/><path class="cls-3" d="M168.23,25.51v-3.1H163.3V43.28h4.93v-11a5.23,5.23,0,0,1,5.63-5.59,9.92,9.92,0,0,1,2.07.21v-4.8a10.69,10.69,0,0,0-1.49-.12C171.46,22,169.22,23.36,168.23,25.51Z"/><path class="cls-3" d="M188.08,21.79a11.06,11.06,0,1,0,11.39,11.06A11.1,11.1,0,0,0,188.08,21.79Zm0,17.6a6.54,6.54,0,1,1,6.46-6.54A6.38,6.38,0,0,1,188.08,39.39Z"/><polygon class="cls-3" points="202.52 27.56 202.52 43.28 207.49 43.28 207.49 27.76 207.49 14.42 202.52 14.42 202.52 27.56"/><path class="cls-3" d="M225.41,34.54c0,3.31-1.95,4.72-4.56,4.72s-4.55-1.41-4.55-4.68V22.41h-5V35c0,6,4.35,8.82,9.52,8.82s9.6-2.9,9.6-8.94V22.41h-5V34.54Z"/><polygon class="cls-3" points="249.22 36.6 246.09 32.22 249.97 26.94 253.29 22.41 247.87 22.41 243.35 28.66 238.8 22.41 233.41 22.41 236.5 26.63 240.62 32.26 236.3 38.27 232.71 43.28 238.05 43.28 243.35 35.91 248.65 43.28 253.99 43.28 249.22 36.6"/></svg>